<svg width="548" height="656" viewBox="0 0 548 656" fill="none" xmlns="http://www.w3.org/2000/svg">
<ellipse cx="174.258" cy="555" rx="174" ry="12" fill="black" fill-opacity="0.5"/>
<path d="M182.944 414.091C181.635 414.284 180.095 414.386 179.783 415.945C179.542 417.153 179.633 418.396 180.357 419.444C181.594 421.234 183.432 422.279 185.646 421.91C187.625 421.581 190.344 419.787 190.344 417.559C190.344 416.303 189.439 415.039 188.691 414.099C187.889 413.092 187.195 412.032 186.186 411.208C184.823 410.097 183.723 409.988 182.498 411.298C181.828 412.015 181.194 412.993 180.901 413.932C180.756 414.395 180.862 414.766 180.862 415.23C180.862 415.848 180.748 414.936 180.862 414.63" stroke="#00ADB5" stroke-opacity="0.5" stroke-linecap="round" stroke-linejoin="round"/>
<path d="M189.727 417.63C190.841 418.619 191.785 419.513 193.755 419.561C195.134 419.595 196.512 419.251 197.804 418.88C198.729 418.615 201.696 417.21 199.292 417.097" stroke="#00ADB5" stroke-opacity="0.5" stroke-linecap="round" stroke-linejoin="round"/>
<path d="M201.213 409.003C199.743 410.626 197.715 413.807 198.477 416.245C198.744 417.102 199.134 417.679 199.637 418.412C200.65 419.886 202.221 419.426 203.646 419.041C204.678 418.762 205.905 417.883 206.301 416.883C206.846 415.503 205.709 413.345 204.759 412.395C203.698 411.334 202.858 410.043 201.676 409.114C201.361 408.867 201.122 408.599 200.712 408.69C200.251 408.793 200.061 409.234 200.674 409.234" stroke="#00ADB5" stroke-opacity="0.5" stroke-linecap="round" stroke-linejoin="round"/>
<path d="M305.124 186.582C303.815 186.776 302.275 186.878 301.964 188.437C301.722 189.645 301.814 190.888 302.538 191.936C303.775 193.726 305.613 194.771 307.826 194.402C309.806 194.072 312.524 192.279 312.524 190.051C312.524 188.795 311.62 187.531 310.871 186.591C310.069 185.583 309.376 184.524 308.366 183.7C307.004 182.589 305.904 182.48 304.679 183.79C304.009 184.507 303.375 185.485 303.081 186.424C302.937 186.887 303.043 187.258 303.043 187.722C303.043 188.34 302.928 187.428 303.043 187.122" stroke="#00ADB5" stroke-opacity="0.5" stroke-linecap="round" stroke-linejoin="round"/>
<path d="M311.908 190.122C313.021 191.111 313.966 192.005 315.935 192.053C317.314 192.087 318.692 191.743 319.985 191.372C320.91 191.107 323.876 189.702 321.473 189.589" stroke="#00ADB5" stroke-opacity="0.5" stroke-linecap="round" stroke-linejoin="round"/>
<path d="M323.393 181.495C321.924 183.118 319.895 186.299 320.657 188.737C320.925 189.594 321.314 190.171 321.817 190.903C322.831 192.377 324.401 191.918 325.826 191.533C326.858 191.254 328.086 190.375 328.481 189.375C329.027 187.994 327.889 185.837 326.939 184.887C325.878 183.826 325.038 182.535 323.856 181.606C323.541 181.359 323.302 181.091 322.892 181.182C322.431 181.285 322.241 181.726 322.854 181.726" stroke="#00ADB5" stroke-opacity="0.5" stroke-linecap="round" stroke-linejoin="round"/>
<path d="M192.383 139.395C199.929 135.8 206.03 129.855 212.164 124.249C216.986 119.843 222.042 115.49 227.363 111.688C228.413 110.937 229.896 109.428 231.315 110.071C232.722 110.709 233.532 112.445 234.644 113.473C237.381 116.005 239.843 119.099 242.093 122.074C244.571 125.349 240.856 127.162 238.559 129.306C235.95 131.742 233.458 134.254 230.609 136.403C227.9 138.446 225.724 141.262 223.244 143.575C219.465 147.1 215.93 150.853 212.162 154.381C209.919 156.481 207.345 158.196 205.185 160.371C204.428 161.133 203.728 162.141 202.855 162.775C202.154 163.285 201.183 161.325 200.934 160.956C198.953 158.026 195.884 156.021 193.944 152.957C192.725 151.03 191.904 148.652 190.444 146.892C189.747 146.052 188.005 144.161 188.768 142.934C189.548 141.681 191.761 141.081 192.968 140.184C193.909 139.484 195.053 138.621 196.124 138.134C196.902 137.781 197.666 137.154 198.362 136.672C200.194 135.402 198.253 135.945 197.014 136.417" stroke="#00ADB5" stroke-opacity="0.5" stroke-linecap="round" stroke-linejoin="round"/>
<path d="M193.536 145.148C198.13 147.992 202.251 152.108 205.837 156.167C205.928 156.27 206.801 156.878 206.668 157.103C206.411 157.538 203.429 155.575 203.144 155.379" stroke="#00ADB5" stroke-opacity="0.5" stroke-linecap="round" stroke-linejoin="round"/>
<path d="M198.09 141.036C201.815 142.102 204.035 144.132 207.042 146.303C208.381 147.27 209.746 148.143 210.948 149.281C211.513 149.815 211.915 150.518 212.437 151.094C213.152 151.883 210.232 150.178 209.888 149.981" stroke="#00ADB5" stroke-opacity="0.5" stroke-linecap="round" stroke-linejoin="round"/>
<path d="M203.502 137.848C206.109 140.201 208.729 142.521 211.417 144.778C212.438 145.636 213.598 146.423 214.48 147.434C216.045 149.227 213.995 146.9 213.298 146.243" stroke="#00ADB5" stroke-opacity="0.5" stroke-linecap="round" stroke-linejoin="round"/>
<path d="M207.154 135.606C209.088 136.781 211.107 137.92 212.744 139.505C213.416 140.156 213.973 140.922 214.691 141.524C215.575 142.266 216.35 143.132 217.24 143.853C218.508 144.88 218.698 145.18 217.192 143.891" stroke="#00ADB5" stroke-opacity="0.5" stroke-linecap="round" stroke-linejoin="round"/>
<path d="M211.862 132.154C213.995 133.824 215.969 135.519 217.753 137.555C218.543 138.457 219.18 139.498 220.182 140.19C221.101 140.824 221.744 141.007 220.669 139.977" stroke="#00ADB5" stroke-opacity="0.5" stroke-linecap="round" stroke-linejoin="round"/>
<path d="M216.395 128.637C218.273 130.048 220.124 131.336 221.624 133.154C222.311 133.986 222.853 134.942 223.62 135.709C225.178 137.268 224.107 136.482 222.98 135.424" stroke="#00ADB5" stroke-opacity="0.5" stroke-linecap="round" stroke-linejoin="round"/>
<path d="M220.575 124.987C223.212 127.509 225.42 130.463 228.061 132.954C229.84 134.632 227.292 131.944 226.875 131.466" stroke="#00ADB5" stroke-opacity="0.5" stroke-linecap="round" stroke-linejoin="round"/>
<path d="M225.679 122.085C227.898 121.179 230.201 120.099 231.393 117.884C231.722 117.274 232.146 116.742 232.281 116.054C232.467 115.109 232.43 115.515 231.73 116.126" stroke="#00ADB5" stroke-opacity="0.5" stroke-linecap="round" stroke-linejoin="round"/>
<path d="M229.252 125.133C231.012 123.5 232.979 121.716 234.268 119.644C234.911 118.61 236.136 117.348 234.423 118.843" stroke="#00ADB5" stroke-opacity="0.5" stroke-linecap="round" stroke-linejoin="round"/>
<path d="M234.893 128.555C236.496 126.813 237.923 125.192 239.398 123.371C239.875 122.782 241.328 122.018 239.58 122.485" stroke="#00ADB5" stroke-opacity="0.5" stroke-linecap="round" stroke-linejoin="round"/>
<path d="M233.618 127.674C235.296 126.236 237.193 124.562 238.523 122.747C238.878 122.262 239.151 121.723 239.475 121.219C240.02 120.376 240.054 120.661 239.229 120.748" stroke="#00ADB5" stroke-opacity="0.5" stroke-linecap="round" stroke-linejoin="round"/>
<path d="M198.066 148.053C206.426 144.657 208.489 135.44 215.301 130.228C216.13 129.594 216.803 128.889 217.77 128.45C218.416 128.157 219.214 128.016 219.802 127.641C220.161 127.411 223.14 125.135 221.07 126.076" stroke="#00ADB5" stroke-opacity="0.5" stroke-linecap="round" stroke-linejoin="round"/>
<path d="M194.173 145.588C195.112 144.447 195.944 143.471 197.135 142.646C197.33 142.51 197.631 142.488 197.792 142.307C198.11 141.949 198.591 141.425 198.714 140.964C199.197 139.145 201.555 139.481 202.808 138.569C203.999 137.702 205.146 136.823 206.361 135.966C207.699 135.022 208.318 134.194 209.393 132.984C210.38 131.872 211.339 130.748 212.384 129.696C213.239 128.835 214.582 128.052 215.126 126.95C215.74 125.707 217.31 124.284 218.723 124.514C219.208 124.594 222.773 126.66 220.443 125.339" stroke="#00ADB5" stroke-opacity="0.5" stroke-linecap="round" stroke-linejoin="round"/>
<path d="M201.738 150.033C208.02 146.72 211.507 139.495 215.75 134.037C217.313 132.027 219.546 130.691 221.182 128.716C221.882 127.871 223.427 126.974 221.63 126.989" stroke="#00ADB5" stroke-opacity="0.5" stroke-linecap="round" stroke-linejoin="round"/>
<path d="M203.981 152.08C209.674 148.58 213.318 142.069 217.46 136.91C219.344 134.562 221.163 132.166 223.07 129.837C223.94 128.776 225.456 128.113 223.51 129.2" stroke="#00ADB5" stroke-opacity="0.5" stroke-linecap="round" stroke-linejoin="round"/>
<path d="M206.224 155.732C209.776 152.268 212.644 148.53 215.55 144.523C217.317 142.087 218.845 139.348 220.92 137.155C222.111 135.896 223.027 134.422 224.108 133.088C224.544 132.55 224.844 131.924 225.292 131.391C226.3 130.19 225.597 131.276 224.895 131.928" stroke="#00ADB5" stroke-opacity="0.5" stroke-linecap="round" stroke-linejoin="round"/>
<path d="M207.059 157.25C208.827 155.518 211.416 153.852 212.596 151.605C213.024 150.79 214.083 148.821 214.826 148.322C215.808 147.662 216.277 146.259 216.991 145.377C217.736 144.458 218.465 143.561 219.273 142.687C220.03 141.867 220.273 140.428 221.21 139.723C222.255 138.937 222.763 137.72 223.597 136.782C224.318 135.97 225.691 135.129 226.586 134.508C227.082 134.165 227.428 133.696 227.99 133.441C229.13 132.923 228.39 133.188 227.347 133.149" stroke="#00ADB5" stroke-opacity="0.5" stroke-linecap="round" stroke-linejoin="round"/>
<path d="M225.536 122.734C226.998 123.119 228.801 123.384 230.134 124.181C230.994 124.695 231.743 125.211 230.176 124.275" stroke="#00ADB5" stroke-opacity="0.5" stroke-linecap="round" stroke-linejoin="round"/>
<path d="M227.054 120.293C229.14 120.838 230.614 121.449 232.315 122.558C233.428 123.283 233.249 123.082 232.091 122.384" stroke="#00ADB5" stroke-opacity="0.5" stroke-linecap="round" stroke-linejoin="round"/>
<path d="M229.585 117.83C231.376 118.837 233.114 119.982 234.966 120.859C236.055 121.375 235.484 121.339 234.643 120.933" stroke="#00ADB5" stroke-opacity="0.5" stroke-linecap="round" stroke-linejoin="round"/>
<path d="M231.026 115.862C232.909 116.719 234.646 117.573 236.38 118.652C237.171 119.144 236.453 119.176 235.853 118.778" stroke="#00ADB5" stroke-opacity="0.5" stroke-linecap="round" stroke-linejoin="round"/>
<path d="M226.46 121.876C227.883 120.184 229.31 118.581 230.606 116.847C230.974 116.355 233.216 113.612 232.247 115.015" stroke="#00ADB5" stroke-opacity="0.5" stroke-linecap="round" stroke-linejoin="round"/>
<path d="M227.955 124.846C229.806 123.209 232.474 121.027 233.072 118.581C233.248 117.862 233.629 117.143 234.188 116.647C234.755 116.145 235.348 115.919 234.501 116.765" stroke="#00ADB5" stroke-opacity="0.5" stroke-linecap="round" stroke-linejoin="round"/>
<path d="M226.47 124.791C228.444 122.664 230.131 121.235 231.247 118.616C231.536 117.935 231.869 117.372 232.344 116.836C232.848 116.269 233.571 115.738 232.598 116.753" stroke="#00ADB5" stroke-opacity="0.5" stroke-linecap="round" stroke-linejoin="round"/>
<path d="M233.805 125.838C234.714 126.414 235.626 126.948 236.571 127.428C236.961 127.626 236.478 127.243 236.312 127.18" stroke="#00ADB5" stroke-opacity="0.5" stroke-linecap="round" stroke-linejoin="round"/>
<path d="M235.577 122.99C235.638 123.042 239.212 126.105 238.578 125.422" stroke="#00ADB5" stroke-opacity="0.5" stroke-linecap="round" stroke-linejoin="round"/>
<path d="M237.7 121.88C238.488 122.638 240.903 124.857 240.052 124.168" stroke="#00ADB5" stroke-opacity="0.5" stroke-linecap="round" stroke-linejoin="round"/>
<path d="M232.749 127.047C234.056 125.831 236.921 123.42 237.623 121.55C237.9 120.813 239.167 119.866 237.975 120.879" stroke="#00ADB5" stroke-opacity="0.5" stroke-linecap="round" stroke-linejoin="round"/>
<path d="M232.914 127.41C233.038 127.51 235.537 130.201 236.07 128.896C236.342 128.23 236.696 127.362 237.363 126.995C238.534 126.351 238.75 124.322 239.948 123.778C241.308 123.16 241.181 122.125 239.915 121.758C239.417 121.613 239.81 120.633 239.293 120.71C238.82 120.781 238.57 120.606 238.041 120.703" stroke="#00ADB5" stroke-opacity="0.5" stroke-linecap="round" stroke-linejoin="round"/>
<path d="M225.371 122.371C226.228 124.009 226.39 124.602 227.773 125.285C228.146 125.47 228.634 125.214 228.917 125.358C229.477 125.642 230.585 125.648 231.004 125.132C231.845 124.093 232.154 123.423 233.443 122.791C234.257 122.393 234.911 121.452 235.287 120.673C235.7 119.816 236.445 119.171 236.882 118.311C237.068 117.945 235.567 117.002 235.553 116.368C235.55 116.188 233.768 116.183 233.471 116.033C233.112 115.85 232.947 115.593 232.775 115.214C232.523 114.659 232.077 115.348 231.4 115.4" stroke="#00ADB5" stroke-opacity="0.5" stroke-linecap="round" stroke-linejoin="round"/>
<path d="M195.692 143.147C197.716 143.916 199.482 144.908 201.304 146.006C202.887 146.96 204.675 147.467 206.247 148.391C207.366 149.049 208.528 150.551 209.354 151.537C209.629 151.866 209.835 152.173 210.03 152.544C210.478 153.394 210.012 151.339 209.965 151.114" stroke="#00ADB5" stroke-opacity="0.5" stroke-linecap="round" stroke-linejoin="round"/>
<path d="M215.24 127.701C215.801 128.291 218.075 131.545 217.626 129.099" stroke="#00ADB5" stroke-opacity="0.5" stroke-linecap="round" stroke-linejoin="round"/>
<path d="M219.919 353.572C220.16 354.811 220.772 355.616 221.247 356.744C221.57 357.511 222.174 358.106 222.511 358.859C222.874 359.672 223.418 360.628 223.925 361.352C224.36 361.972 224.644 362.56 225.192 363.109C226.161 364.077 226.894 365.232 227.868 366.187C229.283 367.575 231.679 369.386 233.74 369.272C234.402 369.235 235.135 369.44 235.785 369.342C236.342 369.258 237.019 369.23 237.577 369.326C238.494 369.485 239.49 369.325 240.367 369.515C240.841 369.618 241.357 369.468 241.836 369.557C242.458 369.672 243.187 369.701 243.82 369.701C245.894 369.701 247.963 369.688 250.032 369.426C251.152 369.283 252.263 369.655 253.373 369.458C254.414 369.272 255.801 369.464 256.781 369.035C257.985 368.508 259.182 367.68 260.112 366.75C260.578 366.284 260.932 365.727 261.248 365.15C261.663 364.393 261.894 363.576 262.311 362.821C263.764 360.186 264.593 357.253 265.77 354.507C266.047 353.859 266.503 353.335 266.835 352.737C266.92 352.586 266.958 352.393 267.095 352.247C267.608 351.704 266.625 351.646 266.173 351.441" stroke="#00ADB5" stroke-opacity="0.5" stroke-linecap="round" stroke-linejoin="round"/>
<path d="M219.688 353.687C220.718 352.341 221.591 351.351 223.087 350.59C224.339 349.952 225.638 349.195 226.77 348.362C228.509 347.084 230.903 346.514 233.02 346.129C235.324 345.71 237.593 345.22 239.939 345.22C240.664 345.22 241.382 345.438 242.108 345.45C242.977 345.465 243.848 345.492 244.713 345.566C246.04 345.679 247.403 345.652 248.732 345.681C250.587 345.721 252.363 346.681 254.217 346.83C255.321 346.918 256.607 347.083 257.68 347.383C258.082 347.496 258.54 347.572 258.915 347.754C259.382 347.981 259.709 348.365 260.138 348.631C261.521 349.492 263.068 349.897 264.563 350.551C265.021 350.752 265.81 351.095 266.317 351.095C267.016 351.095 266.979 352.385 266.979 351.095" stroke="#00ADB5" stroke-opacity="0.5" stroke-linecap="round" stroke-linejoin="round"/>
<path d="M266.864 351.902C266.01 353.047 265.401 353.483 264.189 354.151C263.237 354.676 262.183 355.048 261.117 355.243C260.121 355.425 259.034 355.568 258.025 355.649C257.186 355.716 256.329 355.619 255.472 355.716C253.532 355.937 251.576 356.437 249.705 356.984C247.035 357.764 244.456 357.845 241.698 357.995C238.688 358.158 235.669 357.928 232.719 357.316C231.724 357.11 230.672 357.295 229.66 357.256C228.544 357.212 227.451 356.905 226.402 356.542C225.96 356.389 225.553 356.155 225.09 356.049C224.547 355.926 223.996 355.974 223.458 355.844C222.708 355.663 221.832 355.336 221.199 354.897C220.923 354.706 220.509 354.549 220.293 354.26C220.23 354.176 220.149 353.989 220.149 353.889C220.149 353.651 219.954 353.711 220.264 353.918" stroke="#00ADB5" stroke-opacity="0.5" stroke-linecap="round" stroke-linejoin="round"/>
<path d="M242.095 363.595C242.796 363.517 243.723 363.53 243.433 362.629C243.34 362.339 243.106 362.308 242.857 362.225C242.116 361.978 240.79 362.457 240.511 363.23C240.012 364.618 240.957 366.118 242.444 365.637C242.849 365.506 243.566 365.22 243.823 364.853C244.132 364.412 243.669 364.542 243.363 364.113" stroke="#00ADB5" stroke-opacity="0.5" stroke-linecap="round" stroke-linejoin="round"/>
<path d="M239.964 362.097C241.082 361.649 241.653 361.464 242.784 361.464C243.239 361.464 243.467 361.432 243.868 361.694C244.532 362.128 244.76 362.952 244.691 363.678C244.632 364.291 244.43 365.131 244.214 365.713C244.054 366.146 243.657 366.221 243.251 366.302C242.88 366.376 242.07 366.169 241.779 366.331C241.469 366.503 240.521 366.561 240.281 366.241C240.06 365.947 239.824 365.821 239.663 365.464C239.51 365.123 239.441 364.798 239.318 364.459C239.149 363.994 238.844 362.723 239.475 362.443C239.844 362.279 240.002 362.181 240.425 362.181C240.545 362.181 240.648 362.27 240.771 362.27C240.948 362.27 240.429 362.155 240.252 362.155" stroke="#00ADB5" stroke-opacity="0.5" stroke-linecap="round" stroke-linejoin="round"/>
<path d="M241.98 357.489C242.793 356.439 243.534 355.355 244.374 354.334C244.825 353.785 245.385 353.313 245.872 352.788C247.264 351.285 248.682 349.639 249.744 347.882C250.789 346.152 252.216 344.267 253.766 342.967C254.585 342.28 255.316 341.522 256.029 340.73C256.72 339.962 257.038 338.889 257.693 338.077C258.2 337.449 261.518 333.174 262.096 335.773C262.323 336.795 261.327 337.509 260.701 338.135C259.991 338.845 259.277 339.747 258.672 340.554C258.089 341.332 257.379 342.016 256.813 342.801C256.042 343.868 254.639 344.632 254.077 345.841C253.613 346.838 252.843 347.64 252.265 348.564C251.465 349.845 250.527 350.915 249.584 352.087C248.836 353.016 247.665 353.78 247.136 354.839C246.693 355.724 245.909 356.097 245.193 356.67C244.882 356.919 244.503 357.058 244.227 357.403C244.135 357.518 243.97 357.65 243.884 357.521C243.835 357.448 243.648 357.613 243.683 357.694C243.805 357.981 243.507 357.005 243.478 356.913" stroke="#00ADB5" stroke-opacity="0.5" stroke-linecap="round" stroke-linejoin="round"/>
<path d="M241.519 357.777C241.74 357.889 243.132 358.946 243.132 358.094C243.132 357.836 243.464 357.406 243.58 357.144C243.669 356.945 242.873 357.135 242.755 357.288C242.6 357.486 242.3 357.648 242.787 357.662C243.161 357.673 243.453 357.512 243.737 357.291C243.819 357.227 244.918 357.401 243.939 357.374C243.418 357.359 242.912 357.374 242.412 357.374C241.98 357.374 242.856 357.259 242.982 357.259C243.083 357.259 242.252 357.753 242.108 357.592C242.073 357.552 242.013 357.444 242.153 357.374" stroke="#00ADB5" stroke-opacity="0.5" stroke-linecap="round" stroke-linejoin="round"/>
<path d="M223.202 353.515C223.267 353.549 225.325 354.627 225.333 354.494C225.343 354.333 225.228 354.192 225.308 354.033C225.656 353.336 226.107 353.671 226.706 353.94C227.174 354.151 226.464 351.82 227.874 352.804C228.603 353.313 228.797 353.232 228.677 352.379C228.587 351.733 228.81 351.731 229.365 351.799C229.743 351.846 230.014 351.928 230.229 351.569C230.491 351.133 230.786 350.885 231.321 351.073C231.764 351.229 232.158 351.668 232.463 351.108C232.597 350.862 232.484 350.125 232.908 350.267C233.174 350.355 233.523 350.702 233.826 350.593C234.056 350.51 234.232 349.799 234.492 349.911C234.763 350.029 235.039 350.543 235.382 350.42C235.547 350.361 235.853 349.821 235.529 349.886" stroke="#00ADB5" stroke-opacity="0.5" stroke-linecap="round" stroke-linejoin="round"/>
<path d="M231.324 352.478C232.038 353.059 234.712 356.162 235.497 353.844C235.637 353.429 235.66 352.607 236.054 353.287C236.378 353.848 236.867 354.237 237.398 353.707C237.749 353.355 237.906 352.758 238.409 352.574C238.871 352.405 239.209 353.273 239.593 352.766C239.902 352.357 239.753 351.654 239.299 351.409C239.15 351.328 239.108 351.606 239.043 351.671" stroke="#00ADB5" stroke-opacity="0.5" stroke-linecap="round" stroke-linejoin="round"/>
<path d="M237.487 348.907C238.6 348.715 240.001 348.326 240.847 349.323C241.24 349.784 241.202 350.374 240.943 350.897C240.754 351.279 240.244 351.47 239.919 351.095C239.653 350.788 240.203 350.281 240.399 350.094C241.073 349.451 242.073 350.48 242.284 351.179C242.461 351.762 240.866 353.114 241.059 352.535" stroke="#00ADB5" stroke-opacity="0.5" stroke-linecap="round" stroke-linejoin="round"/>
<path d="M256.208 350.865C256.538 350.751 258.664 350.067 258.256 351.198C258.046 351.778 257.245 352.089 256.72 352.279C256.471 352.369 255.829 352.354 256.246 351.991C256.607 351.678 257.116 351.53 257.59 351.569C259.439 351.719 256.854 353.843 256.323 354.136C255.292 354.704 253.889 355.303 252.809 354.609" stroke="#00ADB5" stroke-opacity="0.5" stroke-linecap="round" stroke-linejoin="round"/>
<path d="M244.86 347.466C245.299 348.18 245.826 348.896 246.201 349.646C246.33 349.904 245.772 349.243 245.641 348.987C245.606 348.919 245.366 348.162 245.343 348.167C245.063 348.23 244.997 349.514 244.921 349.751C244.562 350.873 243.675 350.443 242.806 350.359C241.753 350.258 241.282 351.296 240.7 351.959C240.234 352.49 240.051 352.653 240.367 353.284C240.623 353.795 240.729 354.291 240.367 354.753C240.085 355.114 239.731 355.342 239.391 355.64C239.079 355.912 239.527 355.867 239.468 355.704C239.308 355.256 238.322 355.349 237.999 355.371C236.8 355.45 235.579 355.149 234.402 355.224C233.777 355.263 233.188 355.612 232.569 355.704C231.939 355.797 232.771 356.343 233.007 356.5C233.413 356.771 232.213 355.925 231.772 355.716C231.032 355.366 230.35 355.096 229.967 354.321C229.583 353.545 229.246 353.016 228.597 352.446C228.374 352.249 228.347 351.951 228.456 351.684C228.709 351.067 229.27 350.565 229.826 350.231" stroke="#00ADB5" stroke-opacity="0.5" stroke-linecap="round" stroke-linejoin="round"/>
<path d="M244.745 349.771C243.301 348.763 242.11 348.329 240.412 348.1C239.815 348.02 239.179 347.607 238.79 347.15C238.444 346.744 238.64 346.852 238.233 347.402C237.677 348.155 237.264 347.48 236.553 347.678C235.463 347.981 234.528 348.994 233.423 349.182C233.12 349.233 233.193 348.727 232.815 348.945C232.178 349.312 231.691 349.66 230.946 349.777C230.496 349.848 229.642 350.144 229.711 350.692" stroke="#00ADB5" stroke-opacity="0.5" stroke-linecap="round" stroke-linejoin="round"/>
<path d="M254.537 349.771C255.931 349.905 257.342 349.888 258.729 350.036C259.218 350.088 259.468 350.286 259.811 350.606C260.121 350.894 260.605 351.574 261.05 351.611C261.691 351.664 262.022 351.398 262.621 351.211C262.981 351.098 264.131 351.211 263.754 351.211" stroke="#00ADB5" stroke-opacity="0.5" stroke-linecap="round" stroke-linejoin="round"/>
<path d="M253.501 351.326C252.003 352.313 251.203 353.81 249.6 354.708C249.282 354.886 248.311 355.231 248.384 355.816C248.437 356.239 251.682 354.914 252.176 354.667" stroke="#00ADB5" stroke-opacity="0.5" stroke-linecap="round" stroke-linejoin="round"/>
<path d="M259.088 352.708C259.902 353.314 260.605 354.181 261.622 353.873C261.898 353.79 262.474 353.757 262.659 353.572" stroke="#00ADB5" stroke-opacity="0.5" stroke-linecap="round" stroke-linejoin="round"/>
<path d="M460.39 327.597C456.183 328.404 453.125 329.619 450.459 333.047C448.769 335.219 449.14 338.638 450.247 340.941C452.071 344.736 456.555 346.879 460.602 347.065C465.315 347.281 471.867 345.896 472.833 340.275C473.351 337.262 470.472 334.413 469.124 331.942C468.028 329.931 466.376 327.221 464.068 326.371C463.126 326.024 460.939 326.144 460.253 327.082C459.947 327.501 459.553 327.944 459.33 328.414C459.149 328.796 459.343 327.444 459.3 327.052" stroke="#00ADB5" stroke-opacity="0.5" stroke-linecap="round" stroke-linejoin="round"/>
<path d="M462.161 337.951C461.026 338.535 459.184 338.921 460.178 340.199C460.404 340.491 460.727 340.475 461.003 340.199C461.238 339.964 462.425 338.728 461.548 338.436C459.76 337.84 460.414 341.407 461.691 339.829C462.378 338.981 461.417 338.146 460.556 338.663C459.53 339.278 460.342 340.353 461.146 339.42C461.753 338.716 461.269 338.177 460.609 338.837C460.018 339.428 460.618 340.37 461.199 339.571C461.795 338.752 461.116 338.058 460.397 338.776C459.565 339.608 460.466 339.521 461.056 338.973C461.65 338.421 460.596 338.502 460.253 338.935C459.458 339.941 460.704 339.798 460.904 338.935C461.199 337.668 459.892 340.58 460.526 338.36" stroke="#00ADB5" stroke-opacity="0.5" stroke-linecap="round" stroke-linejoin="round"/>
<path d="M457.528 333.728C458.739 335.325 459.979 336.839 460.995 338.436C461.277 338.878 461.052 339.322 461.207 339.314C461.78 339.282 462.367 339.178 462.978 339.178C464.376 339.178 465.476 338.496 466.823 338.496C468.454 338.496 470.851 338.073 468.155 336.725" stroke="#00ADB5" stroke-opacity="0.5" stroke-linecap="round" stroke-linejoin="round"/>
<path d="M456.166 327.461C455.911 326.173 454.668 323.05 456.983 323.381C457.814 323.5 458.372 324.359 458.86 324.902C460.132 326.315 459.996 328.021 457.937 328.142C457.398 328.174 456.638 329.243 456.03 328.483C455.341 327.621 456.044 327.679 456.166 326.643C456.246 325.966 455.803 326.022 455.613 325.356C455.467 324.846 455.77 324.287 455.893 323.918" stroke="#00ADB5" stroke-opacity="0.5" stroke-linecap="round" stroke-linejoin="round"/>
<path d="M456.983 325.962C456.971 326.287 456.47 329.22 457.536 328.74C457.893 328.579 458.201 328.346 458.346 327.975C458.486 327.617 458.337 327.402 458.179 327.052C457.773 326.149 456.594 324.745 456.953 326.779C457.18 328.063 458.613 327.763 458.724 326.537C458.809 325.601 457.629 324.347 456.878 325.417C456.346 326.174 457.293 327.842 457.846 326.673C458.127 326.08 457.455 324.571 456.741 325.311C456.009 326.069 457.109 327.669 457.831 327.022C458.545 326.382 458.06 324.43 457.286 325.175C456.579 325.856 457.64 327.212 458.179 326.174C458.781 325.016 457.456 324.143 457.044 325.356C456.676 326.44 457.823 327.604 458.089 326.128C458.291 325.005 456.227 324.408 456.227 325.75C456.227 326.987 457.332 326.86 457.332 325.735C457.332 324.562 456.151 324.826 456.643 325.811C457.135 326.795 457.795 325.048 457.241 324.494C456.594 323.847 455.737 324.847 456.499 325.47C457.018 325.895 457.728 324.132 456.855 323.805C456.101 323.522 456.518 325.062 456.779 324.713C457.184 324.173 456.563 323.811 456.991 323.918C457.368 324.013 458.284 324.214 458.543 324.547C458.746 324.808 459.572 326.265 459.572 326.643C459.572 327.8 457.802 328.424 456.787 328.134C456.058 327.926 455.842 328.441 456.098 328.271C456.718 327.857 456.847 326.779 456.847 327.188" stroke="#00ADB5" stroke-opacity="0.5" stroke-linecap="round" stroke-linejoin="round"/>
<path d="M456.847 346.943C456.146 348.432 455.523 349.927 454.698 351.334C454.512 351.65 454.163 352.297 454.122 352.666C454.012 353.66 455.01 350.295 455.212 349.805" stroke="#00ADB5" stroke-opacity="0.5" stroke-linecap="round" stroke-linejoin="round"/>
<path d="M470.608 344.082C472.333 346.261 474.236 347.815 475.581 350.206C475.713 350.441 475.943 350.628 476.126 350.811C476.738 351.423 474.99 349.505 474.423 348.851" stroke="#00ADB5" stroke-opacity="0.5" stroke-linecap="round" stroke-linejoin="round"/>
<path d="M356.323 217.051C357.402 221.123 361.568 236.26 362.565 241.791C365.309 257.019 361.003 236.24 360.993 242.966" stroke="#00ADB5" stroke-opacity="0.5" stroke-width="2" stroke-linecap="round" stroke-linejoin="round"/>
<path d="M349.011 223.634C348.643 217.438 347.254 208.838 355.942 209.723C360.03 210.14 364.532 212.566 367.08 215.812C371.018 220.828 368.941 228.604 364.686 232.596C362.421 234.72 360.224 235.785 357.26 236.588C352.24 237.949 356.202 230.976 357.011 229.064" stroke="#00ADB5" stroke-opacity="0.5" stroke-width="2" stroke-linecap="round" stroke-linejoin="round"/>
<path d="M371.61 231.207C380.243 230.745 388.189 229.046 391.278 238.408C393.072 243.849 395.258 250.46 393.762 256.194C392.41 261.375 389.498 264.614 384.174 262.407C376.566 259.253 376.576 253.315 380.717 247.393C382.242 245.213 388.081 240.847 388.085 238.298" stroke="#00ADB5" stroke-opacity="0.5" stroke-width="2" stroke-linecap="round" stroke-linejoin="round"/>
<path d="M387.17 221.104C386.875 223.375 386.871 239.444 382.522 239.598C381.706 239.627 381.021 240.051 380.309 240.406C377.571 241.769 379.237 240.542 380.259 239.123C382.574 235.909 387.263 237.097 389.611 232.831C392.161 228.199 393.335 225.921 389.68 222.338C387.119 219.826 388.244 215.555 386.227 221.573" stroke="#00ADB5" stroke-opacity="0.5" stroke-width="2" stroke-linecap="round" stroke-linejoin="round"/>
<path d="M399.911 206.522C403.248 214.033 406.297 223.815 411.65 230.354C413.064 232.082 413.858 230.578 413.836 229.232C413.809 227.532 413.329 225.816 412.837 224.206" stroke="#00ADB5" stroke-opacity="0.5" stroke-width="2" stroke-linecap="round" stroke-linejoin="round"/>
<path d="M390.224 226.055C395.518 223.972 408.516 221.864 410.731 215.253" stroke="#00ADB5" stroke-opacity="0.5" stroke-width="2" stroke-linecap="round" stroke-linejoin="round"/>
<path d="M406.505 206.768C429.45 246.902 407.096 218.694 418.758 211.353C425.838 206.898 426.428 227.897 428.39 218.814" stroke="#00ADB5" stroke-opacity="0.5" stroke-width="2" stroke-linecap="round" stroke-linejoin="round"/>
<path d="M426.998 205.387C427.83 207.876 430.626 224.307 436.447 220.554C439.05 218.875 442.081 215.675 442.583 212.529C443.122 209.154 441.013 200.579 436.242 201.502C434.064 201.924 430.422 202.025 429.002 204.095C427.629 206.095 426.762 210.779 428.41 205.86" stroke="#00ADB5" stroke-opacity="0.5" stroke-width="2" stroke-linecap="round" stroke-linejoin="round"/>
<path d="M443.255 201.409C449.762 197.231 457.41 195.86 458.4 205.698C458.524 206.933 458.547 208.488 459.113 209.625C459.77 210.943 458.421 206.403 457.144 205.67" stroke="#00ADB5" stroke-opacity="0.5" stroke-width="2" stroke-linecap="round" stroke-linejoin="round"/>
<path d="M442.778 205.176C443.072 210.319 442.337 217.286 444.74 222.111C444.822 222.275 445.393 223.534 445.105 222.844C444.536 221.479 444.3 220.553 443.227 219.073" stroke="#00ADB5" stroke-opacity="0.5" stroke-width="2" stroke-linecap="round" stroke-linejoin="round"/>
<path d="M278.091 251.734C277.19 260.093 278.761 285.829 264.563 284.227C261.603 283.894 258.915 283.399 257.509 280.61C256.036 277.69 254.818 275.149 254.672 271.832C254.492 267.758 256.114 265.835 259.408 263.996C260.563 263.352 258.081 265.962 257.861 266.215C256.413 267.878 261.325 265.851 263.203 265.435" stroke="#00ADB5" stroke-opacity="0.5" stroke-width="2" stroke-linecap="round" stroke-linejoin="round"/>
<path d="M296.318 255.75C289.137 256.422 279 257.783 277.842 266.767C277.214 271.64 284.459 272.232 287.603 273.892C293.006 276.743 297.106 286.043 291.045 290.136C286.831 292.982 283.643 291.469 279.544 291.753C275.379 292.042 278.279 290.507 280.748 290.086" stroke="#00ADB5" stroke-opacity="0.5" stroke-width="2" stroke-linecap="round" stroke-linejoin="round"/>
<path d="M335.231 34.5733C334.655 40.3405 334.305 46.1668 333.594 51.9203C333.525 52.4739 332.98 54.6592 333.624 52.8924C334.096 51.6006 333.943 50.2544 334.7 49.0294C335.743 47.3421 340.452 40.9151 342.664 41.5652C347.097 42.8682 342.623 51.0911 341.353 53.4474C340.916 54.26 339.723 56.0228 340.341 56.9341C341.164 58.149 342.687 53.6592 342.752 53.5218" stroke="#00ADB5" stroke-opacity="0.5" stroke-width="2" stroke-linecap="round" stroke-linejoin="round"/>
<path d="M352.739 38.3603C352.214 40.9369 347.801 53.655 352.053 55.7616C353.253 56.3561 355.908 55.2339 356.733 54.2665C357.592 53.2591 357.143 51.7166 357.05 50.5474" stroke="#00ADB5" stroke-opacity="0.5" stroke-width="2" stroke-linecap="round" stroke-linejoin="round"/>
<path d="M343.991 38.6382C348.656 40.0256 353.454 40.9493 358.09 42.3807C359.184 42.7186 359.594 42.8716 360.183 43.8477C361.099 45.366 358.665 43.9791 358.245 43.5192" stroke="#00ADB5" stroke-opacity="0.5" stroke-width="2" stroke-linecap="round" stroke-linejoin="round"/>
<path d="M365.089 47.6529C364.018 50.8857 363.012 54.1591 361.789 57.3404C361.546 57.9729 361.51 58.2042 361.379 57.7211C361.253 57.2557 361.13 56.9815 361.337 56.49C362.435 53.878 364.998 50.1241 367.416 48.6652C370.026 47.0897 368.602 52.3816 368.251 53.4529C367.857 54.656 366.796 57.9535 368.003 54.7627C368.72 52.8638 370.368 48.1445 373.146 48.8314C374.828 49.2474 374.44 51.5219 374.142 52.7246C373.594 54.9425 373.049 57.1455 372.499 59.3708C371.695 62.6225 372.129 60.8665 372.717 58.4903" stroke="#00ADB5" stroke-opacity="0.5" stroke-width="2" stroke-linecap="round" stroke-linejoin="round"/>
<path d="M385.827 40.5746C384.151 46.6026 382.095 52.6134 380.651 58.7041C380.482 59.4184 380.112 62.0633 381.249 62.3784C382.33 62.6777 386.599 60.1129 385.556 59.2237" stroke="#00ADB5" stroke-opacity="0.5" stroke-width="2" stroke-linecap="round" stroke-linejoin="round"/>
<path d="M95.6852 286.46C91.722 293.989 87.7714 301.525 83.7974 309.048C82.6648 311.193 80.4291 317.753 80.1523 315.344C79.777 312.077 81.773 307.504 82.62 304.443C83.8153 300.122 86.2492 291.491 92.3141 291.522C96.8922 291.547 102.039 298.26 102.749 302.449C103.25 305.406 104.708 302.066 106.686 301.174" stroke="#00ADB5" stroke-opacity="0.5" stroke-width="2" stroke-linecap="round" stroke-linejoin="round"/>
<path d="M107.97 310.581C110.633 316.775 114.559 327.246 122.644 321.485C126.359 318.838 124.513 314.308 120.846 312.869C111.859 309.343 100.534 319.189 98.2926 327.282C96.0518 335.374 104.898 337.855 110.983 338.654C114.35 339.096 113.595 336.218 116.492 335.216" stroke="#00ADB5" stroke-opacity="0.5" stroke-width="2" stroke-linecap="round" stroke-linejoin="round"/>
<path d="M130.353 331.997C123.371 329.082 114.122 326.483 110.188 335.405C108.291 339.705 116.778 340.21 119.296 340.091C124.104 339.865 134.809 328.735 131.202 331.922C128.037 334.719 124.834 338.02 123.532 342.15C122.692 344.818 123.657 350.711 126.75 346.641" stroke="#00ADB5" stroke-opacity="0.5" stroke-width="2" stroke-linecap="round" stroke-linejoin="round"/>
<path d="M157.502 337.579C147.369 338.551 135.36 339.06 131.765 350.445C129.998 356.041 134.144 359.933 139.14 361.575C142.631 362.723 146.19 360.231 148.308 357.703" stroke="#00ADB5" stroke-opacity="0.5" stroke-width="2" stroke-linecap="round" stroke-linejoin="round"/>
<path d="M166.705 339.123C166.15 339.799 141.189 367.004 153.087 367.214C156.381 367.273 159.762 365.356 162.031 363.201" stroke="#00ADB5" stroke-opacity="0.5" stroke-width="2" stroke-linecap="round" stroke-linejoin="round"/>
<path d="M145.563 344.073C150.356 347.378 155.081 350.878 160.338 353.432C161.703 354.096 163.978 354.412 164.918 355.788C165.446 356.561 164.616 354.725 164.524 354.458" stroke="#00ADB5" stroke-opacity="0.5" stroke-width="2" stroke-linecap="round" stroke-linejoin="round"/>
<path d="M92.1062 126.255C96.128 133.133 108.9 153.199 103.715 147.15C100.401 143.283 97.8833 138.151 95.7819 133.576C93.5768 128.776 91.5063 120.211 99.9094 120.645C107.122 121.019 110.001 128.384 111.27 134.421C111.829 137.084 111.972 139.153 113.167 141.575C114.388 144.052 114.456 134.509 114.92 132.033" stroke="#00ADB5" stroke-opacity="0.5" stroke-width="2" stroke-linecap="round" stroke-linejoin="round"/>
<path d="M118.09 112.267C118.315 113.307 121.791 137.092 126.837 132.518C128.962 130.592 129.429 125.844 129.702 123.243C130.554 115.114 127.12 114.11 121.413 112.39C118.691 111.569 118.133 111.606 117.385 114.409C115.85 120.164 118.27 118.547 121.371 115.347" stroke="#00ADB5" stroke-opacity="0.5" stroke-width="2" stroke-linecap="round" stroke-linejoin="round"/>
<path d="M140.031 105.557C137.228 110.282 133.653 115.84 135.625 121.627C136.443 124.028 138.346 123.393 139.679 122.042C141.782 119.909 142.879 116.404 142.762 113.475C142.537 107.861 139.021 103.057 135.33 99.0676C134.819 98.5145 130.158 94.6725 131.071 97.9712C132.71 103.896 137.273 109.595 140.452 114.745C145.692 123.232 147.299 119.936 149.652 111.969" stroke="#00ADB5" stroke-opacity="0.5" stroke-width="2" stroke-linecap="round" stroke-linejoin="round"/>
<path d="M150.151 107.026C151.891 108.649 165.62 118.456 166.047 109.757C166.085 108.968 165.079 108.721 164.748 108.049C163.893 106.316 162.477 105.173 161.707 104.264" stroke="#00ADB5" stroke-opacity="0.5" stroke-width="2" stroke-linecap="round" stroke-linejoin="round"/>
<path d="M151.296 112.921C145.859 105.782 138.265 98.3595 146.05 91.302C149.33 88.3282 156.135 90.6797 155.958 95.6483C155.875 97.9624 155.386 103.685 152.063 104.289C150.306 104.608 149.496 103.458 151.121 101.85" stroke="#00ADB5" stroke-opacity="0.5" stroke-width="2" stroke-linecap="round" stroke-linejoin="round"/>
<path d="M163.706 83.3129C167.221 85.5493 192.266 100.35 179.148 106.819C177.103 107.828 175.304 105.478 174.217 103.966C171.767 100.558 178.905 95.7227 179.202 92.1126" stroke="#00ADB5" stroke-opacity="0.5" stroke-width="2" stroke-linecap="round" stroke-linejoin="round"/>
<path d="M184.262 71.4142C182.217 73.0849 170.483 83.4619 179.71 85.4683C184.807 86.5765 189.624 81.4977 193.498 78.9626C199.738 74.8787 201.056 82.7372 199.341 87.1727C198.291 89.8891 189.524 98.7785 191.923 91.7115" stroke="#00ADB5" stroke-opacity="0.5" stroke-width="2" stroke-linecap="round" stroke-linejoin="round"/>
<path d="M253.519 457.65C245.713 461.578 235.484 468.742 243.923 478.247C247.971 482.807 255.444 480.939 260.775 480.412C262.273 480.264 266.406 481.705 265.281 480.705C262.847 478.542 261.096 478.681 260.366 475.029" stroke="#00ADB5" stroke-opacity="0.5" stroke-width="2" stroke-linecap="round" stroke-linejoin="round"/>
<path d="M276.692 455.016C276.692 460.771 276.638 464.891 282.543 467.129C285.093 468.096 286.694 468.983 287.371 471.84C288.136 475.069 285.883 479.747 283.216 481.553C279.919 483.786 275.778 484.565 272.069 483.045C268.892 481.743 272.404 480.204 274.058 478.715" stroke="#00ADB5" stroke-opacity="0.5" stroke-width="2" stroke-linecap="round" stroke-linejoin="round"/>
<path d="M302.496 448.697C301.461 452.71 296.792 463.443 300.946 467.597C302.623 469.274 305.87 468.343 307.938 468.826C309.996 469.307 311.761 470.882 313.029 472.513C315.037 475.094 313.126 479.006 310.806 480.822C307.206 483.639 302.064 482.402 297.874 482.402C295.586 482.402 297.149 482.24 298.283 480.822" stroke="#00ADB5" stroke-opacity="0.5" stroke-width="2" stroke-linecap="round" stroke-linejoin="round"/>
<path d="M293.418 398.752C297.475 397.204 305 394.74 308.924 391.964C313.067 389.034 308.73 388.192 306.525 388.892C302.791 390.079 300.535 393.99 299.269 397.436C295.937 406.507 306.537 416.761 315.449 415.722C323.684 414.761 324.833 410.729 326.069 404.545" stroke="#00ADB5" stroke-opacity="0.5" stroke-width="2" stroke-linecap="round" stroke-linejoin="round"/>
<path d="M331.336 394.012C330.413 395.515 321.648 413.561 319.223 405.072" stroke="#00ADB5" stroke-opacity="0.5" stroke-width="2" stroke-linecap="round" stroke-linejoin="round"/>
<path d="M315.01 394.539C318.708 399.482 327.642 417.156 336.602 416.658C337.902 416.586 336.178 411.583 336.076 410.865" stroke="#00ADB5" stroke-opacity="0.5" stroke-width="2" stroke-linecap="round" stroke-linejoin="round"/>
<path d="M339.235 394.539C341.278 406.506 345.37 442.674 343.039 430.76C341.837 424.617 330.861 391.374 340.523 392.754C344.713 393.353 355.409 399.466 352.606 405.072C351.03 408.224 341.263 409.324 345.555 407.178" stroke="#00ADB5" stroke-opacity="0.5" stroke-width="2" stroke-linecap="round" stroke-linejoin="round"/>
<path d="M359.248 402.965C360.549 409.736 361.801 416.502 362.934 423.299C363.128 424.463 362.868 423.504 362.525 422.861C360.371 418.821 357.421 411.623 357.522 407.091C357.617 402.797 363.524 399.869 366.621 402.965" stroke="#00ADB5" stroke-opacity="0.5" stroke-width="2" stroke-linecap="round" stroke-linejoin="round"/>
<path d="M376.1 410.865C375.964 415.821 379.559 433.172 388.096 428.127C389.319 427.404 392.337 425.638 392.426 424.031C392.474 423.174 390.915 422.978 390.32 422.978C388.755 422.978 388.364 421.037 387.687 419.818" stroke="#00ADB5" stroke-opacity="0.5" stroke-width="2" stroke-linecap="round" stroke-linejoin="round"/>
<path d="M373.467 412.445C378.08 407.673 383.268 401.099 387.364 409.607C388.564 412.098 388.146 415.099 387.16 417.594C385.566 421.625 379.859 423.215 381.367 417.185" stroke="#00ADB5" stroke-opacity="0.5" stroke-width="2" stroke-linecap="round" stroke-linejoin="round"/>
<path d="M401.906 402.965C405.515 408.733 420.113 424.281 410.537 431.375C407.473 433.644 405.473 433.634 402.023 433.51C397.152 433.336 399.726 432.102 401.379 428.244" stroke="#00ADB5" stroke-opacity="0.5" stroke-width="2" stroke-linecap="round" stroke-linejoin="round"/>
<path d="M424.024 400.859C422.934 402.178 408.852 415.792 417.412 417.243C420.567 417.778 423.467 415.867 426.365 417.799C431.594 421.285 430.355 426.01 425.546 428.975C423.142 430.458 420.46 431.235 417.939 432.457C416.514 433.148 418.032 431.147 418.231 430.351" stroke="#00ADB5" stroke-opacity="0.5" stroke-width="2" stroke-linecap="round" stroke-linejoin="round"/>
<path d="M411.912 395.066C410.689 395.964 397.522 403.271 399.389 407.705C401.745 413.299 402.524 406.413 402.959 404.019" stroke="#00ADB5" stroke-opacity="0.5" stroke-width="2" stroke-linecap="round" stroke-linejoin="round"/>
<path d="M88.229 222.793C90.5745 217.263 89.6139 212.444 89.6139 206.712C89.6139 205.597 89.4116 202.201 90.5833 201.593C92.4312 200.634 94.158 199.994 96.3382 199.994C97.7877 199.994 99.2441 200.036 100.693 199.994C102.142 199.953 103.546 199.363 104.978 199.188C107.644 198.861 110.417 199.316 113.049 199.316C115.139 199.316 117.301 199.587 119.312 199.587C119.669 199.587 121.124 199.757 121.358 199.964C122.076 200.597 121.87 201.612 122.435 202.166" stroke="#00ADB5" stroke-opacity="0.5" stroke-linecap="round" stroke-linejoin="round"/>
<path d="M122.298 202.656C122.389 204.288 122.423 206.578 123.095 208.173C123.53 209.206 123.183 210.582 123.271 211.683C123.44 213.795 123.125 215.855 123.125 217.905C123.125 220.654 123.263 223.369 123.263 226.104C123.263 228.451 120.97 228.058 119.156 227.728C117.589 227.443 115.486 228.015 113.853 228.035C110.703 228.074 107.538 228.311 104.382 228.311C101.747 228.311 99.7899 227.545 97.3631 226.625C96.0671 226.133 95.2838 226.242 93.8918 226.242C92.5735 226.242 91.4893 226.036 90.1677 226.449C89.3945 226.69 88.0099 226.482 87.5701 225.69C87.0427 224.741 88.0911 224.329 88.0911 223.552C88.0911 222.9 88.0091 221.034 88.2291 222.794" stroke="#00ADB5" stroke-opacity="0.5" stroke-linecap="round" stroke-linejoin="round"/>
<path d="M103.953 206.242C103.953 206.242 104.505 206.518 105.057 207.07C105.608 207.483 106.77 207.277 107.746 207.277C108.26 207.277 108.803 206.876 109.263 206.671C110.197 206.256 109.64 207.037 109.417 207.483C109.169 207.978 109.452 208.898 109.899 209.208C110.638 209.719 111.369 209.278 112.091 208.916C112.391 208.766 112.308 208.697 112.401 208.901C112.527 209.178 112.505 209.58 112.505 209.882C112.505 210.569 112.46 211.712 112.091 212.311C111.606 213.099 111.116 213.609 110.336 214.188C109.566 214.761 108.548 215.759 107.524 215.759C105.523 215.759 103.399 215.323 102.398 213.376C101.973 212.551 101.194 211.875 101.194 210.932C101.194 210.144 100.934 209.201 101.194 208.449C101.51 207.537 102.298 206.671 102.022 206.671C102.163 206.711 103.401 205.966 103.953 206.242Z" stroke="#00ADB5" stroke-opacity="0.5" stroke-linecap="round" stroke-linejoin="round"/>
<path d="M106.229 205.759C107.005 205.472 108.777 204.87 109.194 203.932C109.517 203.206 108.451 203.07 107.884 203.07C107.196 203.07 106.381 204.02 106.198 204.621C106.097 204.956 106 205.298 105.899 205.637C105.851 205.8 105.916 205.918 105.949 206.07C105.975 206.185 107.027 205.632 106.988 205.474" stroke="#00ADB5" stroke-opacity="0.5" stroke-linecap="round" stroke-linejoin="round"/>
<path d="M120.166 221.273L89.6276 221.944C86.3971 222.015 83.8153 224.654 83.8153 227.885C83.8153 231.167 86.476 233.828 89.7581 233.828H120.298C123.611 233.828 126.298 231.142 126.298 227.828V227.272C126.298 223.906 123.53 221.199 120.166 221.273Z" stroke="#00ADB5" stroke-opacity="0.5"/>
<path d="M96.3168 221.777C96.7749 222.487 97.1703 223.34 97.696 223.997C97.9604 224.327 97.9179 224.26 98.4304 224.07C99.286 223.753 100.255 223.981 101.148 223.981C101.932 223.981 102.843 223.571 103.604 223.777C104.487 224.014 105.527 223.561 106.395 223.54C107.442 223.515 108.44 223.613 109.48 223.613C110.108 223.613 110.719 223.246 111.3 223.246C111.637 223.246 112.598 223.513 112.622 222.895C112.634 222.594 112.769 222.302 112.769 221.997C112.769 221.586 112.523 221.764 112.108 221.557" stroke="#00ADB5" stroke-opacity="0.5" stroke-linecap="round" stroke-linejoin="round"/>
<path d="M245.738 71.0062C246.304 70.2862 247.389 68.9538 245.868 68.7182C245.525 68.6649 245.203 68.4628 244.866 68.6158C243.826 69.0869 242.86 70.1242 242.86 71.3575C242.86 73.3274 245.021 73.7539 246.59 73.7284C249.238 73.6854 250.044 71.1056 250.979 69.0158C251.924 66.9049 252.973 64.8281 253.953 62.7323C255.062 60.3608 256.881 58.4717 258.032 56.1219C258.525 55.1143 259.169 54.227 259.805 53.307C260.79 51.8799 261.493 50.4402 262.198 48.8578C262.776 47.5596 263.417 46.3741 264.125 45.1453C264.412 44.6484 264.304 43.8871 264.852 44.4184C265.268 44.8217 265.93 45.0867 266.489 45.1892C268.936 45.6373 271.187 46.1116 273.707 45.9112C276.256 45.7085 278.803 45.3434 281.312 44.8574C282.165 44.6922 281.801 44.8911 281.399 45.4087C280.717 46.2866 280.134 47.217 279.481 48.1065C278.628 49.2666 278.329 50.6636 277.824 51.9898C277.27 53.4477 276.61 54.8402 276.08 56.3219C275.057 59.1856 273.564 61.7972 271.716 64.2007C270.645 65.5936 269.323 68.0264 267.318 67.9279C264.215 67.7755 266.31 61.6678 267.792 60.4735C268.59 59.8306 269.463 60.5228 269.56 61.3858C269.694 62.5717 269.287 64.1967 268.136 64.7764C266.922 65.388 265.991 65.3146 266.925 63.7373C267.491 62.7829 267.827 63.8332 268.059 63.3665" stroke="#00ADB5" stroke-opacity="0.5" stroke-width="2" stroke-linecap="round" stroke-linejoin="round"/>
<path d="M479.566 283.769C480.132 283.048 481.217 281.716 479.697 281.481C479.353 281.427 479.031 281.225 478.694 281.378C477.654 281.849 476.688 282.887 476.688 284.12C476.688 286.09 478.849 286.516 480.418 286.491C483.066 286.448 483.872 283.868 484.807 281.778C485.752 279.667 486.801 277.59 487.781 275.495C488.89 273.123 490.709 271.234 491.86 268.884C492.353 267.877 492.997 266.989 493.633 266.069C494.618 264.642 495.321 263.202 496.026 261.62C496.604 260.322 497.245 259.136 497.954 257.908C498.24 257.411 498.132 256.649 498.68 257.181C499.096 257.584 499.758 257.849 500.317 257.951C502.765 258.4 505.015 258.874 507.535 258.673C510.084 258.471 512.631 258.106 515.14 257.62C515.993 257.455 515.629 257.653 515.227 258.171C514.545 259.049 513.963 259.979 513.309 260.869C512.457 262.029 512.157 263.426 511.652 264.752C511.098 266.21 510.438 267.602 509.908 269.084C508.885 271.948 507.392 274.56 505.544 276.963C504.473 278.356 503.151 280.789 501.146 280.69C498.043 280.538 500.138 274.43 501.62 273.236C502.418 272.593 503.291 273.285 503.388 274.148C503.522 275.334 503.116 276.959 501.964 277.539C500.75 278.15 499.819 278.077 500.753 276.5C501.319 275.545 501.655 276.596 501.887 276.129" stroke="#00ADB5" stroke-opacity="0.5" stroke-width="2" stroke-linecap="round" stroke-linejoin="round"/>
<path d="M454.564 159.664C451.968 154.959 452.121 153.615 452.713 148.879C453.039 146.272 453.164 143.723 453.823 141.158C455.003 136.57 455.386 130.391 451.692 126.697C444.423 119.428 430.886 129.766 434.985 138.988C436.545 142.498 439.24 145.097 441.188 148.407C441.969 149.735 442.406 151.174 443.421 152.415C444.395 153.605 445.604 155.086 445.604 156.563C445.604 157.811 445.232 159.429 446.114 160.532C447.334 162.056 446.9 161.272 448.705 161.272C449.946 161.272 451.776 160.286 452.777 159.486C453.491 158.914 453.874 160.567 453.874 158.975C453.874 157.608 453.435 158.745 454.334 158.745" stroke="#00ADB5" stroke-opacity="0.5" stroke-linecap="round" stroke-linejoin="round"/>
<path d="M448.82 164.029C451.277 163.297 458.077 161.661 456.503 163.685C454.604 166.126 453.792 164.903 451.462 165.421C450.27 165.685 449.108 169.363 450.428 169.441C452.313 169.552 453.563 167.016 455.482 167.016C457.229 167.016 457.104 169.315 456.057 170.13C454.673 171.206 453.082 170.05 452.151 171.726C450.68 174.374 454.699 173.943 455.84 173.321C456.989 172.694 458.082 171.715 458.928 171.151" stroke="#00ADB5" stroke-opacity="0.5" stroke-linecap="round" stroke-linejoin="round"/>
<path d="M454.564 158.918C454.532 159.118 454.5 160.468 453.961 160.468C453.67 160.468 453.537 160.292 453.271 160.44C452.959 160.613 452.667 161.021 452.368 161.26C452.105 161.47 451.325 161.444 451.175 161.706C450.93 162.135 450.433 162.37 449.969 162.421C449.367 162.488 449.145 162.79 448.504 162.648C448.309 162.604 448.289 162.479 448.106 162.479C447.822 162.479 447.7 162.614 447.487 162.377C447.25 162.114 446.863 161.991 446.749 161.592C446.595 161.049 446.026 160.764 446.868 161.1" stroke="#00ADB5" stroke-opacity="0.5" stroke-linecap="round" stroke-linejoin="round"/>
<path d="M443.479 136.174C444.507 136.179 445.356 136.246 445.706 137.335C445.944 138.077 445.949 138.805 445.949 139.575C445.949 140.324 445.489 140.926 445.489 141.63C445.489 142.561 446.234 142.409 446.864 142.693C447.46 142.961 447.891 143.184 448.214 143.784C448.534 144.377 448.292 145.525 448.249 146.171C448.212 146.726 447.948 147.906 448.332 148.375C448.541 148.63 449.681 149.024 448.935 148.465" stroke="#00ADB5" stroke-opacity="0.5" stroke-linecap="round" stroke-linejoin="round"/>
<path d="M434.806 146.569C433.983 147.116 433.145 147.574 432.225 147.919C431.839 148.064 431.331 148.322 431.418 147.718" stroke="#00ADB5" stroke-opacity="0.5" stroke-linecap="round" stroke-linejoin="round"/>
<path d="M431.82 138.643C430.362 138.995 428.913 139.39 427.468 139.779C427.227 139.844 427.779 139.236 427.8 139.218" stroke="#00ADB5" stroke-opacity="0.5" stroke-linecap="round" stroke-linejoin="round"/>
<path d="M431.418 131.12C429.908 130.9 428.402 130.628 426.9 130.36C426.208 130.237 425.915 130.328 426.306 129.741" stroke="#00ADB5" stroke-opacity="0.5" stroke-linecap="round" stroke-linejoin="round"/>
<path d="M439.573 123.136C438.38 122.927 437.346 122.725 436.268 122.185C435.763 121.933 435.277 121.63 434.749 121.426C434.121 121.184 434.108 121.258 434.806 120.839" stroke="#00ADB5" stroke-opacity="0.5" stroke-linecap="round" stroke-linejoin="round"/>
<path d="M449.969 117.967C450.143 119.186 450.086 119.916 449.593 121.021C449.327 121.616 449.102 122.369 448.97 123.012C448.925 123.233 448.9 123.359 448.75 123.526C448.694 123.588 448.9 122.848 448.935 122.734" stroke="#00ADB5" stroke-opacity="0.5" stroke-linecap="round" stroke-linejoin="round"/>
<path d="M458.756 122.849C458.375 124.118 457.832 125.336 457.506 126.608C457.341 127.251 457.444 127.29 457.723 126.64" stroke="#00ADB5" stroke-opacity="0.5" stroke-linecap="round" stroke-linejoin="round"/>
<path d="M462.432 131.981C461.127 133.11 460.057 134.512 459.044 135.899C458.917 136.073 458.77 136.135 458.629 136.276C458.309 136.596 458.861 135.873 458.929 135.772" stroke="#00ADB5" stroke-opacity="0.5" stroke-linecap="round" stroke-linejoin="round"/>
<path d="M169.992 247.189C171.901 255.791 174.052 264.412 175.315 273.144C176.021 278.022 174.471 270.983 174.279 269.988C173.862 267.834 173.384 265.926 173.384 263.723C173.384 259.29 173.265 254.807 172.936 250.369C172.706 247.262 168.89 238.011 173.713 245.729C178.632 253.598 182.104 262.299 185.443 270.883C185.903 272.066 186.54 273.187 187.044 274.322C187.32 274.942 182.157 269.896 180.167 268.811" stroke="#00ADB5" stroke-opacity="0.5" stroke-width="2" stroke-linecap="round" stroke-linejoin="round"/>
<path d="M167.024 266.267C172.536 264.067 184.689 259.919 188.222 253.737C189.702 251.147 189.413 252.344 185.254 253.124" stroke="#00ADB5" stroke-opacity="0.5" stroke-width="2" stroke-linecap="round" stroke-linejoin="round"/>
<path d="M183.558 237.438C187.812 245.858 190.893 254.824 192.061 264.171C192.169 265.037 192.37 265.987 192.98 266.597C193.093 266.71 190.939 262.679 190.342 261.603" stroke="#00ADB5" stroke-opacity="0.5" stroke-width="2" stroke-linecap="round" stroke-linejoin="round"/>
<path d="M183.558 237.014C186.857 238.99 198.971 246.287 191.072 250.934C190.379 251.342 189.566 251.718 189.07 252.371C188.02 253.752 187.894 254.157 188.646 252.276" stroke="#00ADB5" stroke-opacity="0.5" stroke-width="2" stroke-linecap="round" stroke-linejoin="round"/>
<path d="M194.581 232.775C195.986 242.293 198.397 252.752 198.397 262.451C198.397 264.592 198.039 260.627 197.549 259.484" stroke="#00ADB5" stroke-opacity="0.5" stroke-width="2" stroke-linecap="round" stroke-linejoin="round"/>
<path d="M204.332 249.733C206.659 256.671 207.856 260.76 201.035 262.781C198.703 263.472 201.52 260.086 202.118 259.672C204.159 258.259 206.191 253.711 203.908 251.428C203 250.52 200.826 251.667 200.187 250.581C199.244 248.979 201.356 245.945 202.636 245.163C206.317 242.914 205.854 246.084 204.332 245.069" stroke="#00ADB5" stroke-opacity="0.5" stroke-width="2" stroke-linecap="round" stroke-linejoin="round"/>
<path d="M331.683 120.985C333.089 128.379 338.874 149.97 335.508 143.238C335.146 142.513 334.843 141.898 334.813 141.075C334.7 138.03 334.473 134.847 333.422 131.957C332.543 129.54 332.726 127.034 332.726 124.462C332.726 123.947 331.851 119.892 331.934 119.865C332.819 119.57 336.471 124.006 337.131 124.771C340.469 128.639 343.844 133.084 346.229 137.617C347.457 139.95 347.827 140.786 344.896 141.152" stroke="#00ADB5" stroke-opacity="0.5" stroke-width="2" stroke-linecap="round" stroke-linejoin="round"/>
<path d="M331.336 135.936C334.599 134.281 337.707 132.958 341.072 131.764" stroke="#00ADB5" stroke-opacity="0.5" stroke-width="2" stroke-linecap="round" stroke-linejoin="round"/>
<path d="M340.724 121.333C344.065 126.337 347.247 131.663 351.136 136.284C351.691 136.943 352.855 138.14 352.855 136.593C352.855 134.482 351.686 132.3 351.155 130.296C350.307 127.09 349.517 123.869 348.799 120.637C348.105 117.517 348.594 118.682 349.765 121.024C351.705 124.903 353.747 128.437 356.448 131.88C358.268 134.199 358.457 132.908 358.457 130.875C358.457 127.184 356.655 124.148 355.328 120.83C353.91 117.286 354.005 112.448 352.392 109.221C351.764 107.966 351.677 111.943 351.503 113.335" stroke="#00ADB5" stroke-opacity="0.5" stroke-width="2" stroke-linecap="round" stroke-linejoin="round"/>
<path d="M359.5 108.815C359.589 109.224 360.884 119.347 363.171 118.203C364.173 117.702 364.418 116.169 365.45 115.653C367.122 114.818 368.929 116.298 369.584 117.74C371.317 121.552 369.322 125.967 366.184 128.287C361.837 131.5 363.325 125.716 363.325 124.114" stroke="#00ADB5" stroke-opacity="0.5" stroke-width="2" stroke-linecap="round" stroke-linejoin="round"/>
<path d="M361.587 108.12C360.961 109.83 359.823 117.768 359.481 114.688C359.27 112.786 359.645 111.34 359.848 109.511C360.33 105.172 363.65 108.662 362.282 106.381" stroke="#00ADB5" stroke-opacity="0.5" stroke-width="2" stroke-linecap="round" stroke-linejoin="round"/>
<path d="M338.398 336.508C338.282 336.295 333.266 327.657 333.7 327.408C334.302 327.064 335.425 327.399 336.134 327.133C338.227 326.348 339.913 324.728 341.636 323.388C343.448 321.978 345.93 333.036 346.482 335.365C347.149 338.183 348.887 341.929 345.635 343.555C342.704 345.021 338.847 344.578 335.647 344.507C330.426 344.391 326.818 335.821 326.209 331.556C325.765 328.451 321.465 318.483 326.082 316.489C327.318 315.955 329.417 316.32 330.758 316.32C332.677 316.32 334.352 315.177 336.303 315.177C339.407 315.177 340.346 319.055 337.636 314.796" stroke="#00ADB5" stroke-opacity="0.5" stroke-width="2" stroke-linecap="round" stroke-linejoin="round"/>
<path d="M347.159 317.843C347.7 319.815 349.441 330.762 354.015 327.959C354.886 327.425 355.519 326.131 355.835 325.208C356.678 322.742 356.855 320.683 354.967 318.796C353.553 317.381 350.822 314.494 348.767 314.415C343.671 314.219 348.167 319.927 347.54 318.986" stroke="#00ADB5" stroke-opacity="0.5" stroke-width="2" stroke-linecap="round" stroke-linejoin="round"/>
<path d="M347.921 300.321C351.683 306.27 357.36 312.812 359.644 319.663C359.935 320.537 359.946 321.131 360.491 321.949C361.313 323.182 361.702 324.972 362.48 323.091C363.607 320.368 366.175 317.951 368.194 315.854C370.684 313.268 371.025 314.034 366.585 314.034" stroke="#00ADB5" stroke-opacity="0.5" stroke-width="2" stroke-linecap="round" stroke-linejoin="round"/>
<path d="M374.204 298.417C373.731 299.484 366.555 313.685 373.484 310.458C374.863 309.816 376.269 308.817 376.087 307.178C375.911 305.598 374.592 304.356 373.907 302.988C373.521 302.214 371.975 298.489 372.511 299.559C374.101 302.741 376.238 308.408 378.605 310.775C381.363 313.533 383.015 310.635 380.298 309.082" stroke="#00ADB5" stroke-opacity="0.5" stroke-width="2" stroke-linecap="round" stroke-linejoin="round"/>
<path d="M378.394 299.94C388.996 316.758 375.58 297.888 378.669 294.586C381.658 291.391 385.189 297.527 386.308 299.475C388.257 302.868 390.176 311.671 387.155 302.607" stroke="#00ADB5" stroke-opacity="0.5" stroke-width="2" stroke-linecap="round" stroke-linejoin="round"/>
<path d="M391.726 285.466C391.546 286.101 385.859 302.105 390.117 300.618C391.927 299.986 393.744 298.555 394.709 296.914C395.823 295.02 396.342 292.423 395.535 290.333C394.984 288.908 394.389 287.386 393.63 286.058C391.827 282.904 396.686 292.652 398.138 295.983C400.264 300.86 405.386 317.959 393.313 314.563C388.047 313.082 393.006 304.892 392.487 304.892" stroke="#00ADB5" stroke-opacity="0.5" stroke-width="2" stroke-linecap="round" stroke-linejoin="round"/>
<path d="M241.807 206.765C243.7 206.245 245.314 205.721 246.645 204.223C247.17 203.633 247.241 202.879 247.509 202.164C247.857 201.235 247.424 200.046 247.126 199.154C246.889 198.441 248.188 198.041 248.652 198.011C249.449 197.96 250.059 198.467 250.825 198.512C251.746 198.566 252.728 198.861 253.367 199.58C253.8 200.067 254.381 200.182 254.86 200.605C255.315 201.006 255.674 201.706 256.003 202.22C256.955 203.707 257.224 205.442 257.501 207.143C257.633 207.959 257.714 208.846 257.576 209.67C257.412 210.654 257.587 211.6 257.198 212.543C256.93 213.194 256.5 214.057 255.89 214.442C255.263 214.837 254.68 214.979 254.52 215.798C254.185 217.508 255.044 219.183 254.713 220.909C254.42 222.442 252.394 222.676 251.142 222.922C250.277 223.091 248.706 223.356 247.873 222.903C246.321 222.059 245.197 221.005 244.046 219.662C243.026 218.472 242.641 216.733 242.506 215.212C242.369 213.659 242.367 211.973 242.402 210.403C242.425 209.361 242.728 208.314 242.827 207.275C242.908 206.425 243.178 206.357 242.742 207.445" stroke="#00ADB5" stroke-opacity="0.5" stroke-linecap="round" stroke-linejoin="round"/>
<path d="M252.776 199.027C253.416 197.378 254.119 195.73 254.609 194.029C254.83 193.265 254.883 192.455 255.157 191.709C255.477 190.842 255.635 189.862 255.772 188.955C255.87 188.305 255.918 187.154 256.513 186.744C256.948 186.445 257.196 185.762 257.661 185.402C258.259 184.941 259.108 184.512 259.532 183.895C259.948 183.29 260.392 182.04 260.042 181.34C259.848 180.951 259.874 180.532 259.683 180.149C259.434 179.651 259.21 179.247 259.022 178.708C258.857 178.237 258.338 177.295 258.941 176.96C260.417 176.141 260.519 177.431 260.978 178.609C261.214 179.218 261.25 179.961 261.469 180.593C261.619 181.026 261.884 180.713 262.088 180.962C262.394 181.336 262.409 181.804 262.64 182.209C262.987 182.815 262.58 184.044 262.404 184.637C262.079 185.735 261.744 186.729 261.261 187.783C260.018 190.499 257.992 192.786 256.603 195.418C256.074 196.419 255.651 197.428 255.394 198.536C255.247 199.165 254.817 199.765 254.817 200.43C254.817 201.037 254.667 201.348 254.987 200.387" stroke="#00ADB5" stroke-opacity="0.5" stroke-linecap="round" stroke-linejoin="round"/>
<path d="M259.409 178.534C258.326 178.7 257.145 178.763 256.178 179.247C256.045 179.313 256.251 179.14 256.348 179.129C257.644 178.976 259.06 177.82 260.241 177.258C261.119 176.84 262.319 175.898 263.321 175.898C263.611 175.898 262.357 176.705 262.215 176.833" stroke="#00ADB5" stroke-opacity="0.5" stroke-linecap="round" stroke-linejoin="round"/>
<path d="M258.304 180.404C259.509 179.704 261.607 178.944 262.489 177.768C262.575 177.654 262.638 177.5 262.763 177.428C263.201 177.178 262.427 177.457 262.3 177.513" stroke="#00ADB5" stroke-opacity="0.5" stroke-linecap="round" stroke-linejoin="round"/>
<path d="M259.154 181.51C260.6 180.956 263.243 180.464 264.039 178.874C264.154 178.644 263.899 178.704 263.746 178.704" stroke="#00ADB5" stroke-opacity="0.5" stroke-linecap="round" stroke-linejoin="round"/>
<path d="M260.685 181.34C260.592 183.29 260.612 185.273 259.499 186.943C258.956 187.757 258.58 188.299 258.389 189.253C258.185 190.272 257.961 191.123 257.496 192.054C257.037 192.972 256.498 193.724 256.046 194.605C255.811 195.062 255.234 195.502 255.346 196.051C255.403 196.328 255.266 196.576 255.176 196.835C254.911 197.603 254.414 198.279 253.948 198.942C253.632 199.392 253.636 200.2 254.052 199.367" stroke="#00ADB5" stroke-opacity="0.5" stroke-linecap="round" stroke-linejoin="round"/>
<path d="M253.797 197.071C254.564 197.238 255.731 197.751 256.518 197.751C256.532 197.751 255.849 196.927 255.753 196.816" stroke="#00ADB5" stroke-opacity="0.5" stroke-linecap="round" stroke-linejoin="round"/>
<path d="M254.307 193.585C255.392 194.048 256.479 194.507 257.557 194.988C257.81 195.1 257.795 195.117 257.708 195.03C257.522 194.843 257.363 194.641 257.198 194.435" stroke="#00ADB5" stroke-opacity="0.5" stroke-linecap="round" stroke-linejoin="round"/>
<path d="M255.328 191.289C256.635 191.695 257.94 192.133 259.263 192.489C259.411 192.529 259.618 192.608 259.475 192.46C259.19 192.165 258.862 191.905 258.559 191.629" stroke="#00ADB5" stroke-opacity="0.5" stroke-linecap="round" stroke-linejoin="round"/>
<path d="M256.008 188.398C257.496 189.125 258.978 189.909 260.505 190.557C260.756 190.663 260.84 190.741 260.789 190.542C260.719 190.273 260.615 190.018 260.515 189.758" stroke="#00ADB5" stroke-opacity="0.5" stroke-linecap="round" stroke-linejoin="round"/>
<path d="M257.878 186.357C258.014 186.422 262.131 188.655 261.79 187.802" stroke="#00ADB5" stroke-opacity="0.5" stroke-linecap="round" stroke-linejoin="round"/>
<path d="M258.729 184.996C259.971 185.288 261.227 185.554 262.47 185.762" stroke="#00ADB5" stroke-opacity="0.5" stroke-linecap="round" stroke-linejoin="round"/>
<path d="M260.089 183.636C260.656 183.663 261.223 183.691 261.79 183.721" stroke="#00ADB5" stroke-opacity="0.5" stroke-linecap="round" stroke-linejoin="round"/>
<path d="M248.865 209.146C248.274 209.381 244.635 210.286 244.613 211.291C244.605 211.684 244.613 212.077 244.66 212.467C244.807 213.678 245.649 214.312 246.682 214.891C247.995 215.626 249.409 215.649 250.84 215.231C252.2 214.833 253.084 213.329 252.54 212.037C252.427 211.769 252.818 211.715 252.564 211.404C252.317 211.102 252.154 211.277 251.756 211.357" stroke="#00ADB5" stroke-opacity="0.5" stroke-linecap="round" stroke-linejoin="round"/>
<path d="M247.079 212.292C247.756 210.581 248.6 208.87 248.993 207.063C249.095 206.589 249.222 206.191 249.479 205.764C250.021 204.86 250.499 203.895 250.821 202.891C251.126 201.938 251.146 200.998 251.548 200.066C251.692 199.734 252.549 198.737 252.181 199.197" stroke="#00ADB5" stroke-opacity="0.5" stroke-linecap="round" stroke-linejoin="round"/>
<path d="M253.797 200.047C253.481 202.017 253.007 203.902 252.673 205.849C252.487 206.928 252.181 207.83 252.181 208.967C252.181 209.779 252.471 210.457 252.285 211.272C252.071 212.21 251.878 211.748 251.501 211.102" stroke="#00ADB5" stroke-opacity="0.5" stroke-linecap="round" stroke-linejoin="round"/>
<path d="M252.947 200.047C252.355 201.277 251.076 203.299 251.076 204.852C251.076 205.735 251.133 206.672 251.071 207.568C250.998 208.634 250.166 210.015 249.668 210.932C249.503 211.236 249.288 211.471 249.186 211.801C249.059 212.213 249.15 212.238 248.865 211.782" stroke="#00ADB5" stroke-opacity="0.5" stroke-linecap="round" stroke-linejoin="round"/>
<path d="M246.824 210.507C248.272 211.543 250.829 213.657 252.606 211.829C252.884 211.544 253.284 210.936 253.438 210.573C253.648 210.076 252.968 210.498 252.521 210.592" stroke="#00ADB5" stroke-opacity="0.5" stroke-linecap="round" stroke-linejoin="round"/>
<path d="M248.525 208.976C249.35 208.95 251.02 209.173 251.822 208.759C251.849 208.745 251.761 208.768 251.737 208.787C251.658 208.85 251.494 208.747 251.416 208.721" stroke="#00ADB5" stroke-opacity="0.5" stroke-linecap="round" stroke-linejoin="round"/>
<path d="M249.46 205.83C250.066 205.99 252.259 206.924 252.351 205.915" stroke="#00ADB5" stroke-opacity="0.5" stroke-linecap="round" stroke-linejoin="round"/>
<path d="M250.48 203.279C251.232 203.769 254.281 206.04 253.797 203.619" stroke="#00ADB5" stroke-opacity="0.5" stroke-linecap="round" stroke-linejoin="round"/>
<path d="M251.331 202.088C252.096 202.287 252.861 202.485 253.627 202.683" stroke="#00ADB5" stroke-opacity="0.5" stroke-linecap="round" stroke-linejoin="round"/>
<path d="M255.072 202.088C256.018 202.98 257.908 205.054 257.964 206.614C258.009 207.886 257.964 209.116 257.964 210.403C257.964 211.339 258.142 212.338 258.049 213.228C257.926 214.396 256.131 214.411 256.56 215.783C256.704 216.242 256.579 216.513 256.981 216.842C257.328 217.125 257.58 217.455 257.708 217.905C258.009 218.955 257.41 219.903 256.688 220.626C256.236 221.078 255.649 221.987 255.115 222.284C254.851 222.43 254.312 222.326 254.009 222.326C253.729 222.326 253.162 222.509 252.909 222.624C252.535 222.794 252.06 222.494 251.586 222.667" stroke="#00ADB5" stroke-opacity="0.5" stroke-linecap="round" stroke-linejoin="round"/>
<path d="M241.807 207.02C242.15 208.159 242.405 209.106 242.979 210.081C243.214 210.482 243.182 210.846 243.078 211.314C242.957 211.859 242.559 213.136 242.87 213.695C243.348 214.555 243.338 215.465 243.338 216.417C243.338 217.334 244.771 217.732 245.241 218.202C245.94 218.901 245.637 219.792 246.786 220.097C247.037 220.163 247.43 220.167 247.627 220.328C247.776 220.45 247.951 220.755 248.147 220.791C248.552 220.865 249.094 220.784 249.46 220.947C249.766 221.083 249.989 221.279 250.268 221.434C250.575 221.604 250.996 221.412 251.331 221.58C252.474 222.152 251.963 221.608 251.161 220.966" stroke="#00ADB5" stroke-opacity="0.5" stroke-linecap="round" stroke-linejoin="round"/>
<path d="M157.184 164.311C154.912 167.219 145.156 178.853 153.469 181.486C156.048 182.303 159.406 180.424 162.187 180.696C166.119 181.079 168.33 184.422 169.297 187.893C170.411 191.89 164.265 198.998 167.22 201.147C172.28 204.827 179.568 198.604 183.75 203.546C186.12 206.347 183.628 210.417 185.096 203.809" stroke="#00ADB5" stroke-opacity="0.5" stroke-linecap="round" stroke-linejoin="round"/>
<path d="M271.299 119.02C273.489 121.922 278.701 128.459 280.662 132.186C282.33 135.359 280.227 135.232 278.438 133.971C276.298 132.464 276.598 129.258 277.209 127.037C279.271 119.541 292.614 112.649 294.12 124.17C294.649 128.217 291.032 135.021 286.103 133.415C279.597 131.295 280.012 121.365 284.933 117.675C289.967 113.899 298.216 118.237 298.216 124.404C298.216 131.25 290.079 133.37 286.923 127.33C284.054 121.84 289.137 116.097 294.588 115.275C296.593 114.973 301.772 117.289 298.158 118.494" stroke="#00ADB5" stroke-opacity="0.5" stroke-linecap="round" stroke-linejoin="round"/>
<path d="M381.366 171.158C377.956 174.546 367.179 182.447 376.246 185.523C381.522 187.313 386.406 184.379 389.675 180.374C393.283 175.955 393.895 168.966 388.154 166.096C383.689 163.864 379.842 160.278 376.1 165.891" stroke="#00ADB5" stroke-opacity="0.5" stroke-linecap="round" stroke-linejoin="round"/>
<path d="M497.754 217.502C491.242 221.381 481.354 226.066 491.434 229.732C492.984 230.295 493.992 229.928 495.355 228.971C500.394 225.43 500.69 224.012 500.387 218.555C500.186 214.942 494.903 215.768 492.488 216.975C488.925 218.756 486.44 222.321 484.998 225.928C483.056 230.782 493.093 230.485 494.477 224.641C495.345 220.977 491.154 215.773 488.274 220.252C484.459 226.187 490.281 231.494 493.95 225.285C497.465 219.337 489.253 216.884 487.046 223.822C484.143 232.944 501.397 223.039 495.121 219.901C491.38 218.031 485.063 229.908 491.961 226.952C500.336 223.363 490.966 218.073 490.966 226.455C490.966 233.257 502.216 223.385 494.887 220.72C493.211 220.111 491.557 225.466 492.751 226.66C494.827 228.736 498.436 223.359 498.251 221.423C497.46 213.112 489.324 234.241 499.012 224.553C501.225 222.34 501.134 218.34 497.461 220.691C495.294 222.078 493.923 227.966 498.017 226.601C501.949 225.29 501.949 218.007 497.725 219.696C495.146 220.728 494.213 224.377 491.434 223.822" stroke="#00ADB5" stroke-opacity="0.5" stroke-linecap="round" stroke-linejoin="round"/>
<path d="M440.877 271.746C439.79 272.946 422.437 294.357 431.163 283.449C433.159 280.954 434.992 278.5 437.717 276.749C439.396 275.669 441.014 275.003 442.457 273.56C444.033 271.983 441.798 272.087 441.433 275.374C441.115 278.236 441.358 290.733 440.877 290.705C437.624 290.514 435.491 287.312 432.48 286.258C430.867 285.693 426.084 286.506 427.418 285.438C430.68 282.829 440.67 275.346 437.717 278.3C435.479 280.537 430.88 288.947 432.45 286.199C433.567 284.245 436.586 277.879 436.137 278.943C435.211 281.136 433.6 284.893 433.738 287.311C433.869 289.606 438.428 283.958 438.712 283.39C440.825 279.164 436.453 288.668 438.009 286.404C439.412 284.364 444.152 279.179 440.76 284.268C440.017 285.382 444.274 280.244 443.51 281.342C443.288 281.661 441.359 284.898 442.486 283.771C446.524 279.733 440.574 283.931 439.823 282.805" stroke="#00ADB5" stroke-opacity="0.5" stroke-linecap="round" stroke-linejoin="round"/>
<path d="M405.592 359.168C407.435 356.543 417.97 344.961 409.308 344.451C407.844 344.365 404.825 343.89 403.602 344.89C400.695 347.269 401.956 353.685 405.885 354.399C411.094 355.346 415.977 348.222 410.332 345.475C404.434 342.606 390.512 354.131 396.522 358.875C408.355 368.217 419.055 341.07 403.749 344.978C389.865 348.523 402.096 362.823 408.401 353.609C415.151 343.744 394.337 343.659 398.014 354.692C399.828 360.133 405.781 357.507 406.85 353.112C408.417 346.668 402.009 349.329 401.905 353.785C401.794 358.56 409.152 349.92 404.743 350.303C401.558 350.58 401.243 354.955 398.746 354.955" stroke="#00ADB5" stroke-opacity="0.5" stroke-linecap="round" stroke-linejoin="round"/>
<path d="M195.989 309.664C197.053 314.489 199.149 329.088 199.149 324.146C199.149 320.735 196.544 317.552 196.019 314.14C195.835 312.948 196.214 309.422 195.2 308.611C194.506 308.056 201.064 313.16 202.807 314.14C205.987 315.929 208.266 319.271 211.028 315.72C212.354 314.016 216.254 313.78 216.792 313.35C220.691 310.231 220.334 305.575 221.239 301.501C221.562 300.048 220.742 306.462 220.742 308.347C220.742 310.759 221.177 313.953 221.824 316.218C222.743 319.434 222.375 310.357 221.502 308.611C220.084 305.774 220.215 303.257 220.215 300.184C220.215 298.971 229.019 314.179 227.471 315.34C226.824 315.825 218.203 313.447 215.592 314.287C213.343 315.01 211.288 315.853 209.155 316.92C208.572 317.211 207.61 318.273 207.985 317.973C209.322 316.903 213.413 313.979 211.789 314.521C209.557 315.265 207.366 317.424 205.352 318.617C201.556 320.866 200.328 320.552 198.74 324.41C198.511 324.966 201.344 324.895 201.9 325.053C205.885 326.192 208.39 323.088 211.906 321.66C216.443 319.816 221.661 316.03 226.535 315.457C230.213 315.024 224.62 313.734 224.428 313.35" stroke="#00ADB5" stroke-opacity="0.5" stroke-linecap="round" stroke-linejoin="round"/>
<path d="M397.166 106.908C407.091 103.726 423.166 100.067 432.041 92.8056C433.651 91.488 436.145 90.2249 435.581 87.6855C433.461 78.1454 428.848 75.908 419.753 76.9186C414.708 77.4792 409.865 82.1327 405.182 84.0283C400.361 85.9798 395.537 88.5438 391.138 91.3427C386.687 94.1755 389.266 95.5788 389.266 100.471C389.266 103.161 390.873 106.908 393.742 106.908C395.05 106.908 398.799 105.855 395.088 105.855C392.176 105.855 387.655 106.296 385.053 104.918C383.066 103.866 386.988 101.795 387.92 101.671C391.249 101.227 384.106 104.483 383.385 104.714C381.903 105.188 388.734 100.011 384.936 101.232C380.819 102.555 386.929 99.0064 388.213 98.3646C389.662 97.6401 388.398 98.7871 388.739 98.189C389.286 97.2321 392.451 93.7164 389.588 96.5798C388.629 97.5385 391.751 94.9448 392.806 94.0929C394.793 92.4886 392.272 94.9227 391.782 95.3218C389.523 97.1605 388.994 95.6768 387.159 96.4921C386.393 96.8329 384.526 97.9632 384.526 96.6384C384.526 94.3526 392.591 93.3114 394.064 93.2445C403.085 92.8344 409.397 88.8553 417.705 86.7785C421.702 85.7791 426.071 84.3398 429.817 82.5654C432.595 81.2494 438.161 77.1292 441.111 77.9719C442.27 78.3031 424.387 88.7084 429.525 85.3156C433.775 82.5091 438.648 80.5383 432.275 85.813C427.169 90.0386 436.151 85.1166 436.868 85.4034C438.156 85.9185 428.938 91.183 435.961 87.9488C438.647 86.7119 440.877 86.6508 440.877 83.7357C440.877 79.7787 441.959 75.0887 436.927 76.9186C431.12 79.0303 426.459 83.5438 420.455 85.3156C416.315 86.537 412.283 88.0795 408.225 89.5287C403.516 91.2104 394.993 93.0908 391.636 97.1943C389.847 99.3811 386.66 107.904 393.245 104.216C399.286 100.833 400.247 93.9889 403.485 88.5925C405.093 85.9121 400.683 94.2537 400.033 97.3113C399.286 100.828 402.595 104.875 406.382 104.216C410.535 103.494 414.905 97.7573 416.388 94.2685C423.515 77.4999 410.588 93.7638 414.252 97.4283C418.141 101.317 424.067 91.0151 424.843 88.4755C425.778 85.4154 426.328 81.6434 427.447 78.7326C428.899 74.9575 419.628 79.2093 418.758 79.6396C413.936 82.0227 410.569 85.2016 407.289 89.4117C406.101 90.9356 401.335 98.1087 404.597 99.7397C408.969 101.925 414.335 95.1316 414.457 91.606C414.869 79.663 405.035 85.7839 399.097 90.465C395.427 93.3575 398.615 99.1387 399.272 98.4816" stroke="#00ADB5" stroke-opacity="0.5" stroke-linecap="round" stroke-linejoin="round"/>
<path d="M263.926 392.346C263.697 392.529 255.032 400.003 255.032 397.876C255.032 396.63 255.991 395.296 256.846 394.482C258.536 392.872 265.212 391.634 263.604 395.565C262.525 398.201 258.118 402.087 256.875 397.115C256.359 395.051 259.902 390.908 262.054 392.668C264.426 394.609 259.325 397.082 257.723 396.208C254.861 394.647 258.298 389.09 261.059 390.24C263.946 391.443 259.975 394.731 258.66 395.389C255.584 396.927 256.014 394.441 254.447 392.873" stroke="#00ADB5" stroke-opacity="0.5" stroke-linecap="round" stroke-linejoin="round"/>
<path d="M121.207 391.82C124.243 396.822 130.025 402.013 124.133 406.566C122.613 407.74 113.648 412.435 114.185 406.975C114.839 400.326 124.748 400.178 125.361 394.219C125.968 388.325 111.893 390.546 108.685 386.553C106.675 384.052 105.054 378.509 105.525 375.318C105.708 374.075 108.86 371.663 108.538 373.914C107.95 378.034 94.6646 388.588 102.54 392.054C107.821 394.377 109.183 388.494 113.073 387.08C121.086 384.166 109.094 405.777 109.094 400.246" stroke="#00ADB5" stroke-opacity="0.5" stroke-linecap="round" stroke-linejoin="round"/>
<path d="M379.26 460.283C376.821 466.054 371.887 483.84 371.887 477.574C371.887 476.597 372.076 475.825 372.414 474.912C373.999 470.621 375.834 466.628 378.499 462.857C379.954 460.799 381.686 454.772 383.766 459.346C384.736 461.48 387.511 467.422 386.34 469.762C384.872 472.7 380.312 474.385 377.27 474.502C376.478 474.532 368.171 475.624 370.863 473.156C374.027 470.256 377.088 461.436 381.864 460.839C382.601 460.746 384.142 461.239 384.79 461.599C385.931 462.233 384.541 463.378 384 464.262C383.351 465.322 378.216 472.483 378.207 472.161C378.061 467.362 382.985 460.395 385.638 456.772C386.59 455.473 381.527 464.291 380.372 466.281C379.478 467.82 380.644 471.092 376.627 470.289" stroke="#00ADB5" stroke-opacity="0.5" stroke-linecap="round" stroke-linejoin="round"/>
<path d="M216.002 36.8648C213.652 46.0569 211.559 54.8151 210.706 64.1915C210.621 65.1294 210.028 65.7358 210.618 66.4736C211.497 67.5717 213.82 60.5897 214.714 58.7203C217.548 52.7949 220.742 50.4566 220.742 43.1844C220.742 42.1351 220.742 36.0956 220.742 40.0831C220.742 43.4685 221.383 46.8144 221.151 50.2063C220.976 52.77 218.515 59.6889 220.332 57.8718C223.137 55.0672 220.89 41.0049 216.499 40.639C210.506 40.1396 207.617 53.129 206.932 57.1696C206.135 61.8708 209.449 63.839 213.105 60.1832C218.095 55.1934 219.177 44.9347 214.89 39.0884C209 31.0564 205.135 45.5488 204.65 49.0945C203.553 57.1151 208.033 59.6853 213.339 53.9806C215.291 51.8824 219.226 48.2543 218.401 44.9984C217.303 40.6676 210.902 44.8731 209.624 46.7539C207.811 49.4209 207.835 56.064 210.765 57.9596C213.5 59.7295 216.162 52.3957 215.855 50.5574C214.556 42.7611 199.86 55.1374 207.166 59.5688C213.524 63.4256 217.74 46.1709 209.916 48.3046C207.738 48.8987 202.563 54.7705 207.049 54.7705" stroke="#00ADB5" stroke-opacity="0.5" stroke-linecap="round" stroke-linejoin="round"/>
<path d="M76.4424 186.957C74.0758 193.662 72.3721 197.942 66.3777 201.703C64.8726 202.647 62.8836 204.318 62.5742 206.209C61.9131 210.249 68.2857 214.701 71.9074 213.494C79.5386 210.95 67.9909 203.397 66.7581 201.205C64.6115 197.389 72.3698 190.534 75.945 192.545C78.7279 194.111 79.9615 199.566 78.3149 202.229C75.916 206.11 70.7601 206.263 66.7288 205.653C63.5183 205.166 57.0875 205.828 58.9755 210.597C61.3379 216.565 72.4878 213.437 74.1603 208.374C75.7885 203.444 66.9735 201.586 68.8646 196.963C70.1636 193.788 74.2653 189.824 77.9053 189.824C82.2653 189.824 77.9111 197.969 77.2616 199.245C74.3933 204.883 70.0046 205.445 64.4467 206.969C53.9861 209.837 65.2552 210.241 65.9096 206.969" stroke="#00ADB5" stroke-opacity="0.5" stroke-linecap="round" stroke-linejoin="round"/>
<path d="M63.8029 259.107C62.6849 263.316 59.3796 270.501 59.7068 275.081C59.8601 277.228 60.4465 270.84 60.7016 268.703C61.1877 264.632 61.7437 260.034 63.9199 256.473C64.3062 255.841 73.2381 266.991 74.0431 268.82C76.1974 273.716 73.5003 272.784 70.1226 274.379C68.2453 275.266 55.4352 279.787 55.4352 278.592C55.4352 277.34 57.8502 274.795 58.4195 273.735C60.2013 270.42 62.1131 266.258 62.8666 262.559C64.4761 254.658 63.2763 270.917 63.2763 272.155C63.2763 272.907 63.5684 277.305 61.8134 277.305C59.617 277.305 63.2982 273.171 64.037 271.102C64.8204 268.909 67.9386 262.444 67.1675 260.131C66.0754 256.854 65.5291 266.89 65.4121 270.341C65.3328 272.681 64.2007 276.586 66.0265 272.799C66.6083 271.592 68.4863 266.645 68.4549 267.006C68.1901 270.051 66.9627 273.19 66.9627 276.252C66.9627 279.385 68.6157 269.298 71.4684 268.001C72.1777 267.678 71.1758 273.625 71.1758 274.496C71.1758 276.081 72.6973 268.405 72.6973 269.99C72.6973 270.432 72.066 273.103 71.5855 272.272C69.6159 268.871 68.1341 266.768 64.0955 265.543C62.2561 264.985 56.4095 265.368 58.3317 265.368C59.5952 265.368 61.5795 260.971 62.9837 262.12C64.8467 263.644 62.2899 268.51 61.6963 270.166C60.7245 272.877 60.1161 269.064 62.5156 269.347C65.0158 269.641 62.465 278.873 63.8614 276.778C64.5095 275.806 66.4728 271.01 66.4068 271.57C65.132 282.406 65.3973 268.608 67.4894 271.746" stroke="#00ADB5" stroke-opacity="0.5" stroke-linecap="round" stroke-linejoin="round"/>
<path d="M324.49 115.861C331.19 115.53 337.661 118.007 336.602 110.068C336.078 106.134 333.873 99.7021 335.022 95.8484C336.243 91.7569 343.734 82.5299 337.334 79.6396C331.967 77.2159 324.953 84.0698 323.963 88.7095C323.551 90.6392 323.639 96.6676 326.83 96.6676C329.242 96.6676 330.782 94.2999 332.887 96.4043C335.638 99.1553 336.129 101.665 334.174 105.123C329.482 113.424 310.919 104.152 320.92 94.1514C322.291 92.7806 327.713 86.4939 330.283 88.2999C333.818 90.7844 333.34 97.2529 331.511 100.471C329.688 103.68 322.996 107.041 320.364 102.929C319.064 100.897 319.686 99.5348 321.856 99.5348" stroke="#00ADB5" stroke-opacity="0.5" stroke-linecap="round" stroke-linejoin="round"/>
<path d="M380.595 165.146C381.213 164.896 400.479 155.385 399.583 160.611C399.102 163.415 399.423 166.031 399.817 168.832C399.968 169.904 402.579 178.253 399.963 178.253C395.089 178.253 390.331 175.805 385.451 176.732C383.428 177.116 379.399 178.502 379.249 175.269C379.136 172.844 377.122 161.945 381.911 163.01C385.859 163.887 386.03 160.754 383.228 167.72C382.83 168.709 380.215 176.14 380.653 175.795C385.034 172.353 387.437 165.735 391.449 161.722C393.955 159.217 389.66 169.273 389.138 170.529C386.472 176.947 393.286 165.09 394.053 163.917C397.421 158.766 394.864 167.987 394.346 169.505C392.788 174.068 397.577 165.548 399.495 164.414C405.851 160.658 399.846 173.63 398.5 170.939" stroke="#00ADB5" stroke-opacity="0.5" stroke-linecap="round" stroke-linejoin="round"/>
<path d="M328.703 264.373C329.005 272.114 328.87 276.337 335.432 271.453C337.294 270.068 336.503 273.346 336.046 274.145C335.284 275.48 330.813 282.189 335.315 279.616C336.455 278.965 339.528 277.665 339.528 280.172C339.528 280.568 338.15 285.412 339.499 284.063C341.709 281.853 341.749 273.521 341.869 270.283C341.895 269.576 342.204 268.754 341.576 269.113C338.348 270.957 336.815 280.615 335.139 284.385C333.693 287.64 329.522 283.805 327.123 282.279C322.575 279.385 325.435 281.44 325.543 281.225" stroke="#00ADB5" stroke-opacity="0.5" stroke-linecap="round" stroke-linejoin="round"/>
<path d="M292.364 333.363C292.345 333.608 291.727 348.726 291.838 341.379C291.872 339.137 291.807 336.893 291.838 334.65C291.925 328.281 293.062 331.236 295.817 333.86C297.08 335.063 301.715 337.66 300.966 340.092C300.746 340.809 293.306 342.104 292.13 342.55C291.249 342.884 286.045 346.161 286.045 346.002C286.045 342.089 287.423 337.854 287.888 333.948C288.873 325.677 294.596 347.818 294.968 342.228C295.056 340.912 294.998 333.077 294.998 335.031C294.998 336.485 296.051 344.241 296.051 339.156C296.051 338.005 296.051 336.854 296.051 335.703C296.051 335.161 296.347 337.758 296.548 337.254C297.278 335.43 296.051 331.762 296.051 336.23C296.051 341.246 294.645 337.634 291.575 337.634C288.948 337.634 287.444 347.26 288.795 345.007C289.979 343.035 287.647 335.002 288.678 339.127C289.218 341.286 290.514 338.899 291.311 338.103" stroke="#00ADB5" stroke-opacity="0.5" stroke-linecap="round" stroke-linejoin="round"/>
<path fill-rule="evenodd" clip-rule="evenodd" d="M289.869 277.861C287.426 276.97 285.1 275.668 282.978 273.859C266.954 260.208 273.825 239.612 283.522 228.889C293.22 218.167 352.542 222.444 324.557 272.118C324.439 272.189 324.319 272.26 324.197 272.332C321.068 282.288 323.707 290.827 326.873 301.072C328.164 305.251 329.543 309.714 330.654 314.672L300.974 312.546C292.816 301.468 289.723 290.302 289.869 277.861Z" fill="#F5B9AB"/>
<path d="M282.978 273.859L282.524 274.392V274.392L282.978 273.859ZM289.869 277.861L290.109 277.204C290.388 277.306 290.572 277.573 290.569 277.869L289.869 277.861ZM283.522 228.889L284.041 229.359L283.522 228.889ZM324.557 272.118L325.167 272.461C325.107 272.566 325.022 272.654 324.918 272.717L324.557 272.118ZM324.197 272.332L323.53 272.122C323.581 271.957 323.693 271.817 323.842 271.729L324.197 272.332ZM326.873 301.072L326.204 301.279V301.279L326.873 301.072ZM330.654 314.672L331.336 314.519C331.385 314.735 331.328 314.961 331.184 315.129C331.04 315.296 330.825 315.386 330.604 315.37L330.654 314.672ZM300.974 312.546L300.924 313.243C300.72 313.229 300.532 313.125 300.411 312.96L300.974 312.546ZM283.431 273.327C285.487 275.078 287.739 276.34 290.109 277.204L289.63 278.518C287.114 277.601 284.714 276.257 282.524 274.392L283.431 273.327ZM284.041 229.359C279.274 234.63 275.208 242.328 274.3 250.355C273.396 258.35 275.619 266.671 283.431 273.327L282.524 274.392C274.313 267.396 271.96 258.594 272.91 250.198C273.856 241.833 278.074 233.872 283.004 228.42L284.041 229.359ZM323.948 271.774C330.897 259.439 332.355 250.046 330.636 243.066C328.922 236.105 324.009 231.393 317.871 228.487C311.723 225.577 304.392 224.507 297.996 224.833C294.801 224.996 291.86 225.506 289.434 226.296C286.995 227.09 285.138 228.146 284.041 229.359L283.004 228.42C284.331 226.952 286.449 225.797 289.001 224.966C291.566 224.131 294.632 223.604 297.925 223.436C304.504 223.101 312.073 224.195 318.47 227.223C324.876 230.255 330.153 235.255 331.994 242.732C333.831 250.19 332.21 259.959 325.167 272.461L323.948 271.774ZM323.842 271.729C323.963 271.658 324.081 271.588 324.196 271.518L324.918 272.717C324.798 272.789 324.676 272.862 324.551 272.935L323.842 271.729ZM326.204 301.279C323.047 291.063 320.326 282.316 323.53 272.122L324.864 272.542C321.81 282.259 324.366 290.591 327.541 300.866L326.204 301.279ZM329.971 314.825C328.867 309.898 327.496 305.46 326.204 301.279L327.541 300.866C328.831 305.042 330.218 309.53 331.336 314.519L329.971 314.825ZM301.024 311.848L330.704 313.975L330.604 315.37L300.924 313.243L301.024 311.848ZM290.569 277.869C290.424 290.17 293.476 301.185 301.537 312.131L300.411 312.96C292.157 301.752 289.022 290.435 289.17 277.853L290.569 277.869Z" fill="black"/>
<path d="M329.882 242.12C334.526 248.582 329.524 264.541 325.833 268.532C356.416 251.563 337.054 213.276 327.618 220.258C326.08 206.103 309.837 201.108 298.765 213.08C271.005 190.662 269.544 228.862 279.343 234.671C289.141 240.48 301.029 234.948 307.198 237.944C313.368 240.939 317.175 259.085 319.173 249.014C321.172 238.943 324.076 234.044 329.882 242.12Z" fill="#00ADB5" stroke="black" stroke-width="1.39887"/>
<path d="M357.33 523.989L314.281 520.865L324.641 404.989C324.641 404.989 274.694 286.63 317.57 286.63C378.151 286.63 398.409 379.966 397.654 404.989C396.898 430.012 357.33 523.989 357.33 523.989Z" fill="#EEEEEE" stroke="black" stroke-width="1.39887"/>
<path d="M313.955 525.877L314.557 520.645L357.909 522.387L356.953 530.795C355.408 544.389 341.792 553.155 328.777 548.935C318.978 545.757 312.778 536.111 313.955 525.877Z" fill="#F5B9AB" stroke="black" stroke-width="1.39887" stroke-linejoin="round"/>
<path d="M251.469 440.602C223.466 413.451 258.266 323.516 263.941 312.813C272.205 297.561 297.008 271.028 330.11 286.912C380.167 310.932 357.293 429.78 348.295 470.978L251.469 440.602Z" fill="#EEEEEE" stroke="black" stroke-width="1.39887"/>
<path d="M33.4121 534.857L28.8995 494.065C28.8995 494.065 133.669 460.111 220.016 447.371L338.574 457.612C356.383 499.696 347.6 577.038 215.514 541.481L33.4121 534.857Z" fill="#00ADB5" stroke="black" stroke-width="1.39887"/>
<path fill-rule="evenodd" clip-rule="evenodd" d="M160.367 463.389L141.752 521.285L102.695 519.377L84.8749 411.371C81.9226 393.479 95.7266 377.21 113.861 377.21L138.025 377.21L139.694 374.601L147.806 377.21C154.289 377.218 160.159 379.281 164.916 382.714L329.044 435.51C354.426 443.675 365.842 473.144 352.585 496.278L327.477 540.092C314.443 562.835 283.972 568.179 263.978 551.228L160.367 463.389Z" fill="#00ADB5"/>
<path d="M160.367 463.389L160.819 462.855L160.021 462.179L159.701 463.175L160.367 463.389ZM141.752 521.285L141.718 521.983L142.254 522.009L142.418 521.499L141.752 521.285ZM102.695 519.377L102.005 519.49L102.097 520.048L102.661 520.075L102.695 519.377ZM84.8749 411.371L85.565 411.257V411.257L84.8749 411.371ZM113.861 377.21V377.91V377.91V377.21ZM138.025 377.21V377.91H138.408L138.614 377.587L138.025 377.21ZM139.694 374.601L139.909 373.935L139.396 373.77L139.105 374.224L139.694 374.601ZM147.806 377.21L147.592 377.876L147.696 377.91L147.805 377.91L147.806 377.21ZM164.916 382.714L164.507 383.281L164.597 383.346L164.702 383.38L164.916 382.714ZM329.044 435.51L328.829 436.176V436.176L329.044 435.51ZM352.585 496.278L351.978 495.931V495.931L352.585 496.278ZM327.477 540.092L326.87 539.744V539.744L327.477 540.092ZM263.978 551.228L263.525 551.761V551.761L263.978 551.228ZM159.701 463.175L141.086 521.07L142.418 521.499L161.033 463.603L159.701 463.175ZM141.786 520.586L102.73 518.678L102.661 520.075L141.718 521.983L141.786 520.586ZM103.386 519.263L85.565 411.257L84.1848 411.485L102.005 519.49L103.386 519.263ZM85.565 411.257C82.683 393.791 96.1583 377.91 113.861 377.91V376.511C95.2948 376.511 81.1622 393.166 84.1848 411.485L85.565 411.257ZM113.861 377.91L138.025 377.91V376.511L113.861 376.511V377.91ZM138.614 377.587L140.284 374.978L139.105 374.224L137.436 376.833L138.614 377.587ZM139.48 375.267L147.592 377.876L148.02 376.544L139.909 373.935L139.48 375.267ZM147.805 377.91C154.137 377.917 159.864 379.931 164.507 383.281L165.326 382.147C160.453 378.631 154.441 376.519 147.807 376.511L147.805 377.91ZM164.702 383.38L328.829 436.176L329.258 434.844L165.131 382.048L164.702 383.38ZM328.829 436.176C353.788 444.204 365.014 473.182 351.978 495.931L353.192 496.626C366.67 473.106 355.064 443.145 329.258 434.844L328.829 436.176ZM351.978 495.931L326.87 539.744L328.084 540.44L353.192 496.626L351.978 495.931ZM326.87 539.744C314.054 562.108 284.091 567.363 264.43 550.694L263.525 551.761C283.853 568.995 314.833 563.562 328.084 540.44L326.87 539.744ZM264.43 550.694L160.819 462.855L159.915 463.923L263.525 551.761L264.43 550.694Z" fill="black"/>
<path d="M102.246 518.936L142.184 521.298L145.28 554.825C145.28 554.825 110.244 553.809 88.9901 547.161L103.276 540.14L102.246 518.936Z" fill="#EEEEEE" stroke="black" stroke-width="1.39887" stroke-linejoin="round"/>
<rect width="97.773" height="18.3324" rx="2.00878" transform="matrix(0.258819 0.965926 0.965926 -0.258819 88.786 274.538)" fill="#EEEEEE" stroke="black" stroke-width="1.39887"/>
<rect width="97.773" height="18.3324" rx="2.00878" transform="matrix(-1 0 0 1 207.981 359.418)" fill="#00ADB5" stroke="black" stroke-width="1.39887"/>
<path d="M29.2104 494.095L34.1501 534.877L4.33883 543.105C4.33883 543.105 -1.27782 507.966 1.44392 485.521L11.2893 498.456L29.2104 494.095Z" fill="#EEEEEE" stroke="black" stroke-width="1.39887" stroke-linejoin="round"/>
<path d="M177.252 388.615L199.624 351.338L268.217 388.689C265.073 345.582 294.66 283.546 325.729 287.325C380.234 293.953 340.079 428.301 304.374 451.983C268.668 475.664 177.252 388.615 177.252 388.615Z" fill="#EEEEEE"/>
<path d="M347.431 369.777C338.996 405.124 321.191 440.829 304.374 451.983C268.668 475.664 177.252 388.615 177.252 388.615L199.624 351.338L268.218 388.689L291.532 330.2" stroke="black" stroke-width="1.39887"/>
<path d="M195.551 348.51L199.835 351.573L177.296 388.645L170.406 383.734C159.265 375.792 158.198 359.633 168.199 350.296C175.729 343.266 187.171 342.519 195.551 348.51Z" fill="#F5B9AB" stroke="black" stroke-width="1.39887" stroke-linejoin="round"/>
</svg>
